<?xml version="1.0" encoding="utf-8" standalone="no"?>
<!DOCTYPE svg PUBLIC "-//W3C//DTD SVG 1.1//EN"
  "http://www.w3.org/Graphics/SVG/1.1/DTD/svg11.dtd">
<svg xmlns:xlink="http://www.w3.org/1999/xlink" width="460.8pt" height="345.6pt" viewBox="0 0 460.8 345.6" xmlns="http://www.w3.org/2000/svg" version="1.1">
 <metadata>
  <rdf:RDF xmlns:dc="http://purl.org/dc/elements/1.1/" xmlns:cc="http://creativecommons.org/ns#" xmlns:rdf="http://www.w3.org/1999/02/22-rdf-syntax-ns#">
   <cc:Work>
    <dc:type rdf:resource="http://purl.org/dc/dcmitype/StillImage"/>
    <dc:date>2024-02-14T20:02:20.927917</dc:date>
    <dc:format>image/svg+xml</dc:format>
    <dc:creator>
     <cc:Agent>
      <dc:title>Matplotlib v3.8.2, https://matplotlib.org/</dc:title>
     </cc:Agent>
    </dc:creator>
   </cc:Work>
  </rdf:RDF>
 </metadata>
 <defs>
  <style type="text/css">*{stroke-linejoin: round; stroke-linecap: butt}</style>
 </defs>
 <g id="figure_1">
  <g id="patch_1">
   <path d="M 0 345.6 
L 460.8 345.6 
L 460.8 0 
L 0 0 
z
" style="fill: #ffffff"/>
  </g>
  <g id="axes_1">
   <g id="patch_2">
    <path d="M 57.6 307.584 
L 414.72 307.584 
L 414.72 41.472 
L 57.6 41.472 
z
" style="fill: #ffffff"/>
   </g>
   <g id="PolyCollection_1">
    <defs>
     <path id="m4102d7017d" d="M 73.832727 -122.401785 
L 73.832727 -122.056754 
L 74.099056 -121.991881 
L 74.365384 -121.910621 
L 74.631713 -121.82942 
L 74.898042 -121.748308 
L 75.16437 -121.66713 
L 75.430699 -121.58601 
L 75.697027 -121.504861 
L 75.963356 -121.423709 
L 76.229685 -121.342572 
L 76.496013 -121.261409 
L 76.762342 -121.180282 
L 77.02867 -121.099132 
L 77.294999 -121.017997 
L 77.561327 -120.936828 
L 77.827656 -120.855666 
L 78.093985 -120.774521 
L 78.360313 -120.693364 
L 78.626642 -120.612204 
L 78.89297 -120.531034 
L 79.159299 -120.449913 
L 79.425628 -120.368726 
L 79.691956 -120.287568 
L 79.958285 -120.206411 
L 80.224613 -120.125264 
L 80.490942 -120.044106 
L 80.75727 -119.962927 
L 81.023599 -119.881759 
L 81.289928 -119.800617 
L 81.556256 -119.719461 
L 81.822585 -119.638283 
L 82.088913 -119.55711 
L 82.355242 -119.475955 
L 82.621571 -119.394793 
L 82.887899 -119.313625 
L 83.154228 -119.232469 
L 83.420556 -119.151302 
L 83.686885 -119.070128 
L 83.953214 -118.988979 
L 84.219542 -118.907812 
L 84.485871 -118.826667 
L 84.752199 -118.745491 
L 85.018528 -118.66432 
L 85.284856 -118.583154 
L 85.551185 -118.50201 
L 85.817514 -118.42087 
L 86.083842 -118.339686 
L 86.350171 -118.258526 
L 86.616499 -118.177366 
L 86.882828 -118.096187 
L 87.149157 -118.015034 
L 87.415485 -117.933858 
L 87.681814 -117.852712 
L 87.948142 -117.771557 
L 88.214471 -117.690395 
L 88.480799 -117.609226 
L 88.747128 -117.528077 
L 89.013457 -117.446907 
L 89.279785 -117.365731 
L 89.546114 -117.284578 
L 89.812442 -117.203412 
L 90.078771 -117.122269 
L 90.3451 -117.041089 
L 90.611428 -116.959931 
L 90.877757 -116.878741 
L 91.144085 -116.797595 
L 91.410414 -116.716433 
L 91.676742 -116.635267 
L 91.943071 -116.554092 
L 92.2094 -116.472929 
L 92.475728 -116.391781 
L 92.742057 -116.310617 
L 93.008385 -116.229486 
L 93.274714 -116.148299 
L 93.541043 -116.067152 
L 93.807371 -115.985992 
L 94.0737 -115.904811 
L 94.340028 -115.823647 
L 94.606357 -115.742489 
L 94.872686 -115.661342 
L 95.139014 -115.580161 
L 95.405343 -115.499016 
L 95.671671 -115.417863 
L 95.938 -115.336687 
L 96.204328 -115.255528 
L 96.470657 -115.174376 
L 96.736986 -115.093196 
L 97.003314 -115.012028 
L 97.269643 -114.930905 
L 97.535971 -114.849737 
L 97.8023 -114.768588 
L 98.068629 -114.687418 
L 98.334957 -114.606243 
L 98.601286 -114.525102 
L 98.867614 -114.443922 
L 99.133943 -114.36279 
L 99.400271 -114.281623 
L 99.6666 -114.200455 
L 99.932929 -114.119325 
L 100.199257 -114.03815 
L 100.465586 -113.956969 
L 100.731914 -113.875816 
L 100.998243 -113.794678 
L 101.264572 -113.713507 
L 101.5309 -113.632339 
L 101.797229 -113.551174 
L 102.063557 -113.470023 
L 102.329886 -113.388846 
L 102.596214 -113.307695 
L 102.862543 -113.226559 
L 103.128872 -113.145423 
L 103.3952 -113.064239 
L 103.661529 -112.983061 
L 103.927857 -112.901956 
L 104.194186 -112.820801 
L 104.460515 -112.739621 
L 104.726843 -112.658468 
L 104.993172 -112.577353 
L 105.2595 -112.496146 
L 105.525829 -112.41498 
L 105.792158 -112.333843 
L 106.058486 -112.252669 
L 106.324815 -112.171518 
L 106.591143 -112.090362 
L 106.857472 -112.009229 
L 107.1238 -111.92804 
L 107.390129 -111.846895 
L 107.656458 -111.765753 
L 107.922786 -111.684631 
L 108.189115 -111.603429 
L 108.455443 -111.522256 
L 108.721772 -111.441128 
L 108.988101 -111.359948 
L 109.254429 -111.278819 
L 109.520758 -111.19766 
L 109.787086 -111.116473 
L 110.053415 -111.035372 
L 110.319743 -110.954185 
L 110.586072 -110.873016 
L 110.852401 -110.791881 
L 111.118729 -110.710707 
L 111.385058 -110.62958 
L 111.651386 -110.548442 
L 111.917715 -110.467261 
L 112.184044 -110.38609 
L 112.450372 -110.30494 
L 112.716701 -110.223802 
L 112.983029 -110.142635 
L 113.249358 -110.061482 
L 113.515686 -109.980364 
L 113.782015 -109.899212 
L 114.048344 -109.818025 
L 114.314672 -109.736911 
L 114.581001 -109.655738 
L 114.847329 -109.574605 
L 115.113658 -109.49342 
L 115.379987 -109.412237 
L 115.646315 -109.33109 
L 115.912644 -109.250012 
L 116.178972 -109.168855 
L 116.445301 -109.087693 
L 116.71163 -109.006495 
L 116.977958 -108.925333 
L 117.244287 -108.844202 
L 117.510615 -108.763043 
L 117.776944 -108.681911 
L 118.043272 -108.600732 
L 118.309601 -108.519582 
L 118.57593 -108.438437 
L 118.842258 -108.357299 
L 119.108587 -108.276143 
L 119.374915 -108.194979 
L 119.641244 -108.11383 
L 119.907573 -108.032684 
L 120.173901 -107.951534 
L 120.44023 -107.870367 
L 120.706558 -107.789223 
L 120.972887 -107.708045 
L 121.239215 -107.626896 
L 121.505544 -107.545745 
L 121.771873 -107.464634 
L 122.038201 -107.383476 
L 122.30453 -107.302271 
L 122.570858 -107.22116 
L 122.837187 -107.139976 
L 123.103516 -107.05882 
L 123.369844 -106.977671 
L 123.636173 -106.896526 
L 123.902501 -106.815391 
L 124.16883 -106.734235 
L 124.435158 -106.653058 
L 124.701487 -106.571906 
L 124.967816 -106.490777 
L 125.234144 -106.409621 
L 125.500473 -106.328484 
L 125.766801 -106.247278 
L 126.03313 -106.166156 
L 126.299459 -106.085042 
L 126.565787 -106.003901 
L 126.832116 -105.92273 
L 127.098444 -105.841586 
L 127.364773 -105.760505 
L 127.631101 -105.679315 
L 127.89743 -105.598128 
L 128.163759 -102.488817 
L 128.430087 -105.427872 
L 128.696416 -105.346722 
L 128.962744 -105.265519 
L 129.229073 -105.184375 
L 129.495402 -105.103231 
L 129.76173 -105.022052 
L 130.028059 -104.94088 
L 130.294387 -104.859753 
L 130.560716 -104.778591 
L 130.827045 -104.69738 
L 131.093373 -104.616226 
L 131.359702 -104.535038 
L 131.62603 -104.453854 
L 131.892359 -104.372737 
L 132.158687 -104.291572 
L 132.425016 -104.210424 
L 132.691345 -104.129259 
L 132.957673 -104.048109 
L 133.224002 -103.966877 
L 133.49033 -103.885737 
L 133.756659 -103.804599 
L 134.022988 -103.723446 
L 134.289316 -103.642224 
L 134.555645 -103.561112 
L 134.821973 -103.47998 
L 135.088302 -103.398865 
L 135.35463 -103.317646 
L 135.620959 -103.236443 
L 135.887288 -103.155287 
L 136.153616 -103.074137 
L 136.419945 -102.992986 
L 136.686273 -102.911817 
L 136.952602 -102.830667 
L 137.218931 -102.749507 
L 137.485259 -102.668337 
L 137.751588 -102.587275 
L 138.017916 -102.506025 
L 138.284245 -102.424869 
L 138.550573 -102.343711 
L 138.816902 -102.262558 
L 139.083231 -102.181463 
L 139.349559 -102.100221 
L 139.615888 -102.019064 
L 139.882216 -101.937832 
L 140.148545 -101.856725 
L 140.414874 -101.775539 
L 140.681202 -101.69439 
L 140.947531 -101.613242 
L 141.213859 -101.532076 
L 141.480188 -101.450921 
L 141.746517 -101.369744 
L 142.012845 -101.288622 
L 142.279174 -101.207428 
L 142.545502 -101.126228 
L 142.811831 -101.0451 
L 143.078159 -100.963956 
L 143.344488 -100.882789 
L 143.610817 -100.801614 
L 143.877145 -100.720463 
L 144.143474 -100.639333 
L 144.409802 -100.558143 
L 144.676131 -100.476979 
L 144.94246 -100.39581 
L 145.208788 -100.314619 
L 145.475117 -100.233509 
L 145.741445 -100.152357 
L 146.007774 -100.071202 
L 146.274102 -99.989999 
L 146.540431 -99.908851 
L 146.80676 -99.827732 
L 147.073088 -99.746499 
L 147.339417 -99.66537 
L 147.605745 -99.584278 
L 147.872074 -99.503049 
L 148.138403 -99.421877 
L 148.404731 -99.340787 
L 148.67106 -99.259574 
L 148.937388 -99.178415 
L 149.203717 -99.097292 
L 149.470045 -99.016114 
L 149.736374 -98.934941 
L 150.002703 -98.853804 
L 150.269031 -98.772627 
L 150.53536 -98.691461 
L 150.801688 -98.610372 
L 151.068017 -98.529178 
L 151.334346 -98.447981 
L 151.600674 -98.366855 
L 151.867003 -98.28571 
L 152.133331 -98.204555 
L 152.39966 -98.12338 
L 152.665989 -98.042238 
L 152.932317 -97.961045 
L 153.198646 -97.879876 
L 153.464974 -97.798777 
L 153.731303 -97.717524 
L 153.997631 -97.636415 
L 154.26396 -97.555306 
L 154.530289 -97.474085 
L 154.796617 -97.392944 
L 155.062946 -97.311781 
L 155.329274 -96.194968 
L 155.595603 -97.146862 
L 155.861932 -97.065691 
L 156.12826 -96.984536 
L 156.394589 -96.903362 
L 156.660917 -96.822236 
L 156.927246 -96.741058 
L 157.193574 -96.659874 
L 157.459903 -96.578748 
L 157.726232 -96.497549 
L 157.99256 -96.416396 
L 158.258889 -96.335255 
L 158.525217 -96.254086 
L 158.791546 -96.172909 
L 159.057875 -96.091754 
L 159.324203 -96.010555 
L 159.590532 -95.929442 
L 159.85686 -95.848289 
L 160.123189 -95.767159 
L 160.389517 -95.686053 
L 160.655846 -95.604791 
L 160.922175 -95.523628 
L 161.188503 -95.44245 
L 161.454832 -95.361287 
L 161.72116 -95.280153 
L 161.987489 -95.198986 
L 162.253818 -95.117869 
L 162.520146 -95.036697 
L 162.786475 -94.955535 
L 163.052803 -94.874385 
L 163.319132 -94.793229 
L 163.585461 -94.712044 
L 163.851789 -94.630881 
L 164.118118 -94.549724 
L 164.384446 -94.468554 
L 164.650775 -94.387412 
L 164.917103 -94.306238 
L 165.183432 -94.225123 
L 165.449761 -94.143942 
L 165.716089 -94.062767 
L 165.982418 -93.981651 
L 166.248746 -93.900481 
L 166.515075 -93.819277 
L 166.781404 -93.738143 
L 167.047732 -93.656993 
L 167.314061 -93.575858 
L 167.580389 -93.494713 
L 167.846718 -93.413541 
L 168.113046 -93.332355 
L 168.379375 -93.251218 
L 168.645704 -93.170021 
L 168.912032 -93.088936 
L 169.178361 -93.007746 
L 169.444689 -92.926553 
L 169.711018 -92.845431 
L 169.977347 -92.764267 
L 170.243675 -92.683126 
L 170.510004 -92.602005 
L 170.776332 -92.520801 
L 171.042661 -92.439644 
L 171.308989 -92.358497 
L 171.575318 -92.277396 
L 171.841647 -92.196191 
L 172.107975 -92.115056 
L 172.374304 -92.033889 
L 172.640632 -91.952732 
L 172.906961 -91.871578 
L 173.17329 -91.790458 
L 173.439618 -91.709226 
L 173.705947 -91.62811 
L 173.972275 -91.546924 
L 174.238604 -91.46576 
L 174.504933 -91.384613 
L 174.771261 -91.303532 
L 175.03759 -91.222294 
L 175.303918 -91.14118 
L 175.570247 -91.059995 
L 175.836575 -90.978892 
L 176.102904 -90.897703 
L 176.369233 -90.816554 
L 176.635561 -90.735381 
L 176.90189 -90.654234 
L 177.168218 -90.573088 
L 177.434547 -90.491947 
L 177.700876 -90.41077 
L 177.967204 -90.329646 
L 178.233533 -90.248461 
L 178.499861 -90.16733 
L 178.76619 -90.086161 
L 179.032518 -90.004981 
L 179.298847 -89.923859 
L 179.565176 -89.842695 
L 179.831504 -89.761545 
L 180.097833 -89.680392 
L 180.364161 -89.599226 
L 180.63049 -89.518115 
L 180.896819 -89.436943 
L 181.163147 -89.355834 
L 181.429476 -89.274687 
L 181.695804 -89.193487 
L 181.962133 -89.112303 
L 182.228461 -89.031164 
L 182.49479 -82.912586 
L 182.761119 -88.861118 
L 183.027447 -88.779852 
L 183.293776 -88.698669 
L 183.560104 -88.617469 
L 183.826433 -88.536326 
L 184.092762 -88.455216 
L 184.35909 -88.374012 
L 184.625419 -88.292838 
L 184.891747 -88.211658 
L 185.158076 -88.130513 
L 185.424405 -88.049343 
L 185.690733 -87.96822 
L 185.957062 -87.887045 
L 186.22339 -87.805874 
L 186.489719 -87.724694 
L 186.756047 -87.643558 
L 187.022376 -87.562387 
L 187.288705 -87.481212 
L 187.555033 -87.400097 
L 187.821362 -87.31894 
L 188.08769 -87.237741 
L 188.354019 -87.156609 
L 188.620348 -87.075433 
L 188.886676 -86.994271 
L 189.153005 -86.91311 
L 189.419333 -86.831991 
L 189.685662 -86.750803 
L 189.95199 -86.669612 
L 190.218319 -86.58847 
L 190.484648 -86.507291 
L 190.750976 -86.426146 
L 191.017305 -86.344992 
L 191.283633 -86.263853 
L 191.549962 -86.18268 
L 191.816291 -86.101551 
L 192.082619 -86.020333 
L 192.348948 -85.939169 
L 192.615276 -85.858028 
L 192.881605 -85.776886 
L 193.147933 -85.695687 
L 193.414262 -85.614602 
L 193.680591 -85.53337 
L 193.946919 -85.452211 
L 194.213248 -85.371072 
L 194.479576 -85.289935 
L 194.745905 -85.20879 
L 195.012234 -85.127545 
L 195.278562 -85.046482 
L 195.544891 -84.965306 
L 195.811219 -84.884184 
L 196.077548 -84.802965 
L 196.343877 -84.721833 
L 196.610205 -84.640636 
L 196.876534 -84.559489 
L 197.142862 -84.478308 
L 197.409191 -84.397221 
L 197.675519 -84.316021 
L 197.941848 -84.234852 
L 198.208177 -84.153699 
L 198.474505 -84.072515 
L 198.740834 -83.991406 
L 199.007162 -83.910232 
L 199.273491 -83.829058 
L 199.53982 -83.747929 
L 199.806148 -83.666716 
L 200.072477 -83.585556 
L 200.338805 -83.504426 
L 200.605134 -83.423248 
L 200.871462 -83.342127 
L 201.137791 -83.260922 
L 201.40412 -83.179778 
L 201.670448 -83.098613 
L 201.936777 -83.01745 
L 202.203105 -82.936304 
L 202.469434 -82.855113 
L 202.735763 -82.773937 
L 203.002091 -82.692803 
L 203.26842 -82.611687 
L 203.534748 -82.530474 
L 203.801077 -82.449316 
L 204.067405 -82.368188 
L 204.333734 -82.287007 
L 204.600063 -82.205842 
L 204.866391 -82.124672 
L 205.13272 -82.043553 
L 205.399048 -81.962383 
L 205.665377 -81.881217 
L 205.931706 -81.800053 
L 206.198034 -81.718864 
L 206.464363 -81.637812 
L 206.730691 -81.556567 
L 206.99702 -81.475409 
L 207.263348 -81.394258 
L 207.529677 -81.313058 
L 207.796006 -81.2319 
L 208.062334 -81.150761 
L 208.328663 -81.069631 
L 208.594991 -80.988469 
L 208.86132 -80.907299 
L 209.127649 -80.826087 
L 209.393977 -80.744982 
L 209.660306 -80.663825 
L 209.926634 -80.582632 
L 210.192963 -80.501488 
L 210.459292 -80.420365 
L 210.72562 -80.339198 
L 210.991949 -80.257992 
L 211.258277 -80.176915 
L 211.524606 -80.09568 
L 211.790934 -80.014529 
L 212.057263 -79.933418 
L 212.323592 -79.852233 
L 212.58992 -79.771076 
L 212.856249 -79.689928 
L 213.122577 -79.608769 
L 213.388906 -79.527593 
L 213.655235 -79.446449 
L 213.921563 -79.365337 
L 214.187892 -79.284126 
L 214.45422 -79.202964 
L 214.720549 -79.121841 
L 214.986877 -79.040676 
L 215.253206 -78.959505 
L 215.519535 -78.878385 
L 215.785863 -78.797185 
L 216.052192 -78.716009 
L 216.31852 -78.634846 
L 216.584849 -78.553769 
L 216.851178 -78.472537 
L 217.117506 -78.391377 
L 217.383835 -78.310268 
L 217.650163 -78.229076 
L 217.916492 -78.147934 
L 218.18282 -78.066814 
L 218.449149 -77.985637 
L 218.715478 -77.904461 
L 218.981806 -77.823314 
L 219.248135 -77.74215 
L 219.514463 -77.66099 
L 219.780792 -77.579845 
L 220.047121 -77.498715 
L 220.313449 -77.41752 
L 220.579778 -77.336389 
L 220.846106 -77.255236 
L 221.112435 -77.174049 
L 221.378764 -77.092897 
L 221.645092 -77.011747 
L 221.911421 -76.930613 
L 222.177749 -76.849541 
L 222.444078 -76.768278 
L 222.710406 -76.687133 
L 222.976735 -76.606022 
L 223.243064 -76.524816 
L 223.509392 -76.443675 
L 223.775721 -76.362526 
L 224.042049 -76.281353 
L 224.308378 -76.200218 
L 224.574707 -76.119041 
L 224.841035 -76.037898 
L 225.107364 -75.956768 
L 225.373692 -75.87558 
L 225.640021 -75.794463 
L 225.906349 -75.713304 
L 226.172678 -75.63213 
L 226.439007 -75.550994 
L 226.705335 -75.469832 
L 226.971664 -75.388687 
L 227.237992 -75.307543 
L 227.504321 -75.226441 
L 227.77065 -75.145277 
L 228.036978 -75.064083 
L 228.303307 -74.982933 
L 228.569635 -74.90184 
L 228.835964 -74.820636 
L 229.102292 -74.739512 
L 229.368621 -74.658299 
L 229.63495 -74.577192 
L 229.901278 -74.496039 
L 230.167607 -74.414871 
L 230.433935 -74.333716 
L 230.700264 -74.252622 
L 230.966593 -74.171366 
L 231.232921 -74.09027 
L 231.49925 -74.00906 
L 231.765578 -73.927925 
L 232.031907 -73.84681 
L 232.298236 -73.765666 
L 232.564564 -73.684505 
L 232.830893 -73.603314 
L 233.097221 -73.522212 
L 233.36355 -73.441052 
L 233.629878 -73.359867 
L 233.896207 -73.278744 
L 234.162536 -73.197584 
L 234.428864 -73.116427 
L 234.695193 -73.035327 
L 234.961521 -72.954211 
L 235.22785 -72.873018 
L 235.494179 -72.791882 
L 235.760507 -72.710731 
L 236.026836 -72.629532 
L 236.293164 -72.548399 
L 236.559493 -72.467309 
L 236.825821 -62.279975 
L 237.09215 -72.294216 
L 237.358479 -72.213053 
L 237.624807 -72.131894 
L 237.891136 -72.050694 
L 238.157464 -71.969529 
L 238.423793 -71.888423 
L 238.690122 -71.807223 
L 238.95645 -71.726042 
L 239.222779 -71.644866 
L 239.489107 -71.563736 
L 239.755436 -71.482599 
L 240.021764 -71.401411 
L 240.288093 -71.320211 
L 240.554422 -71.239083 
L 240.82075 -71.157916 
L 241.087079 -71.07679 
L 241.353407 -70.995602 
L 241.619736 -70.914404 
L 241.886065 -70.833247 
L 242.152393 -70.752069 
L 242.418722 -70.67089 
L 242.68505 -70.589744 
L 242.951379 -70.508617 
L 243.217708 -70.427394 
L 243.484036 -70.346235 
L 243.750365 -70.265093 
L 244.016693 -70.183954 
L 244.283022 -70.102782 
L 244.54935 -70.021586 
L 244.815679 -69.940442 
L 245.082008 -69.859248 
L 245.348336 -69.778056 
L 245.614665 -69.696893 
L 245.880993 -69.615817 
L 246.147322 -69.53466 
L 246.413651 -69.453473 
L 246.679979 -69.372352 
L 246.946308 -69.291113 
L 247.212636 -69.209899 
L 247.478965 -69.128791 
L 247.745293 -69.047601 
L 248.011622 -68.966455 
L 248.277951 -68.885296 
L 248.544279 -68.80414 
L 248.810608 -68.722964 
L 249.076936 -68.641844 
L 249.343265 -68.56063 
L 249.609594 -68.47944 
L 249.875922 -68.398299 
L 250.142251 -68.317208 
L 250.408579 -68.235975 
L 250.674908 -68.154798 
L 250.941236 -68.073762 
L 251.207565 -67.992491 
L 251.473894 -67.911337 
L 251.740222 -67.830181 
L 252.006551 -67.749029 
L 252.272879 -67.66784 
L 252.539208 -67.586708 
L 252.805537 -67.505547 
L 253.071865 -67.424441 
L 253.338194 -67.343216 
L 253.604522 -67.262023 
L 253.870851 -67.180885 
L 254.13718 -67.099687 
L 254.403508 -67.018553 
L 254.669837 -66.93736 
L 254.936165 -66.856231 
L 255.202494 -66.775036 
L 255.468822 -66.693936 
L 255.735151 -66.612746 
L 256.00148 -66.531555 
L 256.267808 -66.450418 
L 256.534137 -66.369268 
L 256.800465 -66.288035 
L 257.066794 -66.206941 
L 257.333123 -66.125771 
L 257.599451 -66.044594 
L 257.86578 -65.963418 
L 258.132108 -65.882346 
L 258.398437 -65.801138 
L 258.664765 -65.719985 
L 258.931094 -65.638835 
L 259.197423 -65.557617 
L 259.463751 -65.476496 
L 259.73008 -65.395337 
L 259.996408 -65.314154 
L 260.262737 -65.232961 
L 260.529066 -65.151856 
L 260.795394 -65.070665 
L 261.061723 -64.989508 
L 261.328051 -64.90839 
L 261.59438 -64.827192 
L 261.860708 -64.74606 
L 262.127037 -64.664889 
L 262.393366 -64.583736 
L 262.659694 -64.502565 
L 262.926023 -64.42137 
L 263.192351 -64.340258 
L 263.45868 -64.259085 
L 263.725009 -64.178017 
L 263.991337 -64.096762 
L 264.257666 -64.015644 
L 264.523994 -63.934416 
L 264.790323 -63.85325 
L 265.056652 -63.772191 
L 265.32298 -63.691008 
L 265.589309 -63.6098 
L 265.855637 -63.528635 
L 266.121966 -63.447506 
L 266.388294 -63.366362 
L 266.654623 -63.285158 
L 266.920952 -63.204087 
L 267.18728 -63.122856 
L 267.453609 -63.041721 
L 267.719937 -62.960557 
L 267.986266 -62.879376 
L 268.252595 -62.798214 
L 268.518923 -62.717038 
L 268.785252 -62.635976 
L 269.05158 -62.554709 
L 269.317909 -62.473587 
L 269.584237 -62.392396 
L 269.850566 -62.311267 
L 270.116895 -62.230159 
L 270.383223 -62.148959 
L 270.649552 -62.06783 
L 270.91588 -61.986654 
L 271.182209 -61.905469 
L 271.448538 -61.824387 
L 271.714866 -61.7432 
L 271.981195 -61.662065 
L 272.247523 -61.580887 
L 272.513852 -61.499713 
L 272.78018 -61.418567 
L 273.046509 -61.337425 
L 273.312838 -61.256218 
L 273.579166 -61.175076 
L 273.845495 -61.093974 
L 274.111823 -61.012743 
L 274.378152 -60.931623 
L 274.644481 -60.850501 
L 274.910809 -60.769311 
L 275.177138 -60.688161 
L 275.443466 -60.60705 
L 275.709795 -60.525828 
L 275.976123 -60.444683 
L 276.242452 -60.363555 
L 276.508781 -60.282383 
L 276.775109 -60.201245 
L 277.041438 -60.120099 
L 277.307766 -60.038938 
L 277.574095 -59.957744 
L 277.840424 -59.876606 
L 278.106752 -59.795477 
L 278.373081 -59.714365 
L 278.639409 -59.633181 
L 278.905738 -59.552049 
L 279.172067 -59.470851 
L 279.438395 -59.38969 
L 279.704724 -59.308572 
L 279.971052 -59.22742 
L 280.237381 -59.146232 
L 280.503709 -59.065145 
L 280.770038 -58.983963 
L 281.036367 -58.902791 
L 281.302695 -58.821601 
L 281.569024 -58.740466 
L 281.835352 -58.659308 
L 282.101681 -58.578197 
L 282.36801 -58.49707 
L 282.634338 -58.415864 
L 282.900667 -58.334702 
L 283.166995 -58.253519 
L 283.433324 -58.172406 
L 283.699652 -58.091258 
L 283.965981 -58.010089 
L 284.23231 -57.928932 
L 284.498638 -57.847819 
L 284.764967 -57.76671 
L 285.031295 -57.68549 
L 285.297624 -57.604304 
L 285.563953 -57.523245 
L 285.830281 -57.44203 
L 286.09661 -57.360872 
L 286.362938 -57.279745 
L 286.629267 -57.198563 
L 286.895595 -57.117433 
L 287.161924 -57.036317 
L 287.428253 -56.955108 
L 287.694581 -56.873996 
L 287.96091 -56.792853 
L 288.227238 -56.711688 
L 288.493567 -56.630538 
L 288.759896 -56.549433 
L 289.026224 -56.468239 
L 289.292553 -56.387069 
L 289.558881 -56.305936 
L 289.82521 -56.22474 
L 290.091539 -56.143616 
L 290.357867 -56.062478 
L 290.624196 -55.981355 
L 290.890524 -55.900132 
L 291.156853 -73.909338 
L 291.423181 -73.850287 
L 291.68951 -73.79129 
L 291.955839 -73.732333 
L 292.222167 -73.673316 
L 292.488496 -73.61421 
L 292.754824 -73.555285 
L 293.021153 -73.496217 
L 293.287482 -73.437184 
L 293.55381 -73.378149 
L 293.820139 -73.319084 
L 294.086467 -73.260131 
L 294.352796 -73.201094 
L 294.619124 -73.142087 
L 294.885453 -73.083049 
L 295.151782 -73.024042 
L 295.41811 -72.964962 
L 295.684439 -72.906007 
L 295.950767 -72.847046 
L 296.217096 -72.788004 
L 296.483425 -72.728973 
L 296.749753 -72.66995 
L 297.016082 -72.610906 
L 297.28241 -72.551898 
L 297.548739 -72.492889 
L 297.815067 -72.433833 
L 298.081396 -72.374811 
L 298.347725 -72.31587 
L 298.614053 -72.256886 
L 298.880382 -72.197867 
L 299.14671 -72.13876 
L 299.413039 -72.079775 
L 299.679368 -72.02073 
L 299.945696 -71.961824 
L 300.212025 -71.902764 
L 300.478353 -71.8437 
L 300.744682 -71.78476 
L 301.011011 -71.725708 
L 301.277339 -71.666646 
L 301.543668 -71.607693 
L 301.809996 -71.548595 
L 302.076325 -71.489526 
L 302.342653 -71.430507 
L 302.608982 -71.371498 
L 302.875311 -71.312757 
L 303.141639 -71.253532 
L 303.407968 -71.194534 
L 303.674296 -71.135482 
L 303.940625 -71.076489 
L 304.206954 -71.017409 
L 304.473282 -70.958394 
L 304.739611 -70.899444 
L 305.005939 -70.840421 
L 305.272268 -70.781449 
L 305.538596 -70.722439 
L 305.804925 -70.66335 
L 306.071254 -70.604311 
L 306.337582 -70.545266 
L 306.603911 -70.486264 
L 306.870239 -70.427393 
L 307.136568 -70.368331 
L 307.402897 -70.309221 
L 307.669225 -70.25033 
L 307.935554 -70.19124 
L 308.201882 -70.132255 
L 308.468211 -70.073242 
L 308.734539 -70.01416 
L 309.000868 -69.9552 
L 309.267197 -69.896199 
L 309.533525 -69.837197 
L 309.799854 -69.778147 
L 310.066182 -69.719114 
L 310.332511 -69.660099 
L 310.59884 -69.601117 
L 310.865168 -69.542219 
L 311.131497 -69.483085 
L 311.397825 -69.424026 
L 311.664154 -69.36505 
L 311.930483 -69.306183 
L 312.196811 -69.246988 
L 312.46314 -69.187994 
L 312.729468 -69.128988 
L 312.995797 -69.069917 
L 313.262125 -69.010963 
L 313.528454 -68.951985 
L 313.794783 -68.892862 
L 314.061111 -68.833852 
L 314.32744 -68.77488 
L 314.593768 -68.715945 
L 314.860097 -68.656854 
L 315.126426 -68.597794 
L 315.392754 -68.538837 
L 315.659083 -68.479864 
L 315.925411 -68.420862 
L 316.19174 -68.361842 
L 316.458068 -68.302766 
L 316.724397 -68.243853 
L 316.990726 -68.184771 
L 317.257054 -68.125743 
L 317.523383 -68.066705 
L 317.789711 -68.007732 
L 318.05604 -67.948736 
L 318.322369 -50.773173 
L 318.588697 -67.818651 
L 318.855026 -67.759606 
L 319.121354 -67.700576 
L 319.387683 -67.641467 
L 319.654011 -67.582448 
L 319.92034 -67.523452 
L 320.186669 -67.46445 
L 320.452997 -67.405425 
L 320.719326 -67.346366 
L 320.985654 -67.287284 
L 321.251983 -67.228259 
L 321.518312 -67.169199 
L 321.78464 -67.110198 
L 322.050969 -67.051263 
L 322.317297 -66.992215 
L 322.583626 -66.933158 
L 322.849955 -66.874168 
L 323.116283 -66.815064 
L 323.382612 -66.756129 
L 323.64894 -66.69699 
L 323.915269 -66.637954 
L 324.181597 -66.578995 
L 324.447926 -66.51988 
L 324.714255 -66.460887 
L 324.980583 -66.401861 
L 325.246912 -66.34279 
L 325.51324 -66.28376 
L 325.779569 -66.22474 
L 326.045898 -66.165746 
L 326.312226 -66.106652 
L 326.578555 -66.047766 
L 326.844883 -65.988685 
L 327.111212 -65.929661 
L 327.37754 -65.870556 
L 327.643869 -65.81155 
L 327.910198 -65.752676 
L 328.176526 -65.693537 
L 328.442855 -65.634478 
L 328.709183 -65.575476 
L 328.975512 -65.516413 
L 329.241841 -65.457368 
L 329.508169 -65.398273 
L 329.774498 -65.339264 
L 330.040826 -65.280248 
L 330.307155 -65.221169 
L 330.573483 -65.162219 
L 330.839812 -65.103124 
L 331.106141 -65.044125 
L 331.372469 -64.985153 
L 331.638798 -64.926032 
L 331.905126 -64.867053 
L 332.171455 -64.808068 
L 332.437784 -64.748964 
L 332.704112 -64.689975 
L 332.970441 -64.630974 
L 333.236769 -64.57191 
L 333.503098 -64.512811 
L 333.769427 -64.453794 
L 334.035755 -64.394779 
L 334.302084 -64.335728 
L 334.568412 -64.276782 
L 334.834741 -64.217683 
L 335.101069 -64.158662 
L 335.367398 -64.099569 
L 335.633727 -64.040682 
L 335.900055 -63.981567 
L 336.166384 -63.922603 
L 336.432712 -63.863562 
L 336.699041 -63.804491 
L 336.96537 -63.745535 
L 337.231698 -63.68646 
L 337.498027 -63.627411 
L 337.764355 -63.568406 
L 338.030684 -63.509376 
L 338.297012 -63.450464 
L 338.563341 -63.391312 
L 338.82967 -63.33228 
L 339.095998 -63.273388 
L 339.362327 -63.214182 
L 339.628655 -63.155253 
L 339.894984 -63.096139 
L 340.161313 -63.037188 
L 340.427641 -62.978146 
L 340.69397 -62.919232 
L 340.960298 -62.860022 
L 341.226627 -62.800974 
L 341.492955 -62.742024 
L 341.759284 -62.682962 
L 342.025613 -62.623989 
L 342.291941 -62.564995 
L 342.55827 -62.505956 
L 342.824598 -62.446812 
L 343.090927 -62.387848 
L 343.357256 -62.328849 
L 343.623584 -62.269731 
L 343.889913 -62.210736 
L 344.156241 -62.151675 
L 344.42257 -62.092694 
L 344.688899 -62.033734 
L 344.955227 -61.97463 
L 345.221556 -61.915602 
L 345.487884 -61.856642 
L 345.754213 -61.797516 
L 346.020541 -61.738544 
L 346.28687 -61.679556 
L 346.553199 -61.620457 
L 346.819527 -61.561526 
L 347.085856 -61.502434 
L 347.352184 -61.443393 
L 347.618513 -61.384385 
L 347.884842 -61.325381 
L 348.15117 -61.266332 
L 348.417499 -61.207284 
L 348.683827 -61.148269 
L 348.950156 -61.089291 
L 349.216484 -61.030217 
L 349.482813 -60.971145 
L 349.749142 -60.912167 
L 350.01547 -60.853098 
L 350.281799 -60.794121 
L 350.548127 -60.735072 
L 350.814456 -60.676178 
L 351.080785 -60.617036 
L 351.347113 -60.557979 
L 351.613442 -60.498999 
L 351.87977 -60.440026 
L 352.146099 -60.381056 
L 352.412427 -60.321848 
L 352.678756 -60.262971 
L 352.945085 -60.20394 
L 353.211413 -60.144941 
L 353.477742 -60.085954 
L 353.74407 -60.026761 
L 354.010399 -59.96786 
L 354.276728 -59.908791 
L 354.543056 -59.849738 
L 354.809385 -59.79082 
L 355.075713 -59.731867 
L 355.342042 -59.672649 
L 355.60837 -59.613616 
L 355.874699 -59.554649 
L 356.141028 -59.495538 
L 356.407356 -59.436548 
L 356.673685 -59.377532 
L 356.940013 -59.318482 
L 357.206342 -59.259434 
L 357.472671 -59.200432 
L 357.738999 -59.141418 
L 358.005328 -59.082441 
L 358.271656 -59.023355 
L 358.537985 -58.964349 
L 358.804314 -58.905399 
L 359.070642 -58.84645 
L 359.336971 -58.787252 
L 359.603299 -58.728366 
L 359.869628 -58.669171 
L 360.135956 -58.610202 
L 360.402285 -58.551137 
L 360.668614 -58.492198 
L 360.934942 -58.433257 
L 361.201271 -58.374115 
L 361.467599 -58.315174 
L 361.733928 -58.256075 
L 362.000257 -58.197038 
L 362.266585 -58.138103 
L 362.532914 -58.079024 
L 362.799242 -58.020007 
L 363.065571 -57.960953 
L 363.331899 -57.901966 
L 363.598228 -57.842949 
L 363.864557 -57.783881 
L 364.130885 -57.724854 
L 364.397214 -57.665844 
L 364.663542 -57.606902 
L 364.929871 -57.54775 
L 365.1962 -57.488729 
L 365.462528 -57.42983 
L 365.728857 -57.370774 
L 365.995185 -57.311689 
L 366.261514 -57.252666 
L 366.527842 -57.193664 
L 366.794171 -57.134614 
L 367.0605 -57.07566 
L 367.326828 -57.016569 
L 367.593157 -56.957591 
L 367.859485 -56.898529 
L 368.125814 -56.839612 
L 368.392143 -56.780513 
L 368.658471 -56.721499 
L 368.9248 -56.662527 
L 369.191128 -56.603437 
L 369.457457 -56.544555 
L 369.723786 -56.485482 
L 369.990114 -56.426439 
L 370.256443 -56.367379 
L 370.522771 -56.308364 
L 370.7891 -56.249489 
L 371.055428 -56.190348 
L 371.321757 -56.131351 
L 371.588086 -56.072281 
L 371.854414 -56.013314 
L 372.120743 -55.954277 
L 372.387071 -55.89526 
L 372.6534 -55.836183 
L 372.919729 -55.77719 
L 373.186057 -55.718207 
L 373.452386 -55.659199 
L 373.718714 -55.600183 
L 373.985043 -55.541133 
L 374.251371 -55.482161 
L 374.5177 -55.423201 
L 374.784029 -55.364195 
L 375.050357 -55.305168 
L 375.316686 -55.246119 
L 375.583014 -55.187157 
L 375.849343 -55.128106 
L 376.115672 -55.069053 
L 376.382 -55.010059 
L 376.648329 -54.951075 
L 376.914657 -54.892019 
L 377.180986 -54.832966 
L 377.447314 -54.774036 
L 377.713643 -54.71495 
L 377.979972 -54.655986 
L 378.2463 -54.596949 
L 378.512629 -54.537952 
L 378.778957 -54.478933 
L 379.045286 -54.419865 
L 379.311615 -54.360838 
L 379.577943 -54.301894 
L 379.844272 -54.242746 
L 380.1106 -54.183727 
L 380.376929 -54.124882 
L 380.643258 -54.065794 
L 380.909586 -54.006854 
L 381.175915 -53.947765 
L 381.442243 -53.888748 
L 381.708572 -53.829734 
L 381.9749 -53.770769 
L 382.241229 -53.711662 
L 382.507558 -53.652683 
L 382.773886 -53.593686 
L 383.040215 -53.534675 
L 383.306543 -53.475647 
L 383.572872 -53.416571 
L 383.839201 -53.357685 
L 384.105529 -53.298607 
L 384.371858 -53.239505 
L 384.638186 -53.180666 
L 384.904515 -53.121594 
L 385.170843 -53.06252 
L 385.437172 -53.003555 
L 385.703501 -52.944604 
L 385.969829 -52.885487 
L 386.236158 -52.826513 
L 386.502486 -52.767474 
L 386.768815 -52.708376 
L 387.035144 -52.649398 
L 387.301472 -52.590508 
L 387.567801 -52.531424 
L 387.834129 -52.472395 
L 388.100458 -52.413355 
L 388.366786 -52.354417 
L 388.633115 -52.295324 
L 388.899444 -52.236286 
L 389.165772 -52.177336 
L 389.432101 -52.118275 
L 389.698429 -52.05936 
L 389.964758 -52.000288 
L 390.231087 -51.941276 
L 390.497415 -51.882258 
L 390.763744 -51.823273 
L 391.030072 -51.764212 
L 391.296401 -51.705265 
L 391.56273 -51.646214 
L 391.829058 -51.587208 
L 392.095387 -51.528278 
L 392.361715 -51.469269 
L 392.628044 -51.410213 
L 392.894372 -51.351187 
L 393.160701 -51.29221 
L 393.42703 -51.23312 
L 393.693358 -51.174083 
L 393.959687 -51.115096 
L 394.226015 -51.056204 
L 394.492344 -50.997112 
L 394.758673 -50.93805 
L 395.025001 -50.879112 
L 395.29133 -50.820188 
L 395.557658 -50.761052 
L 395.823987 -50.702086 
L 396.090315 -50.643073 
L 396.356644 -50.584105 
L 396.622973 -50.525063 
L 396.889301 -50.465998 
L 397.15563 -50.406976 
L 397.421958 -50.348009 
L 397.688287 -50.289065 
L 397.954616 -50.23002 
L 398.220944 -50.170943 
L 398.487273 -50.112 
L 398.487273 -240.378207 
L 398.487273 -240.378207 
L 398.220944 -240.281238 
L 397.954616 -240.184349 
L 397.688287 -240.08744 
L 397.421958 -239.990471 
L 397.15563 -239.893517 
L 396.889301 -239.796594 
L 396.622973 -239.699697 
L 396.356644 -239.602787 
L 396.090315 -239.505833 
L 395.823987 -239.408906 
L 395.557658 -239.31195 
L 395.29133 -239.215095 
L 395.025001 -239.118115 
L 394.758673 -239.021143 
L 394.492344 -238.924245 
L 394.226015 -238.827364 
L 393.959687 -238.730365 
L 393.693358 -238.633422 
L 393.42703 -238.536508 
L 393.160701 -238.439626 
L 392.894372 -238.342678 
L 392.628044 -238.245758 
L 392.361715 -238.148856 
L 392.095387 -238.051925 
L 391.829058 -237.954949 
L 391.56273 -237.858017 
L 391.296401 -237.761112 
L 391.030072 -237.664146 
L 390.763744 -237.567246 
L 390.497415 -237.470302 
L 390.231087 -237.373378 
L 389.964758 -237.27645 
L 389.698429 -237.179557 
L 389.432101 -237.082572 
L 389.165772 -236.985672 
L 388.899444 -236.888708 
L 388.633115 -236.791795 
L 388.366786 -236.694914 
L 388.100458 -236.597943 
L 387.834129 -236.501031 
L 387.567801 -236.404113 
L 387.301472 -236.307227 
L 387.035144 -236.210227 
L 386.768815 -236.113279 
L 386.502486 -236.016402 
L 386.236158 -235.919489 
L 385.969829 -235.822539 
L 385.703501 -235.725673 
L 385.437172 -235.628709 
L 385.170843 -235.531753 
L 384.904515 -235.434861 
L 384.638186 -235.337968 
L 384.371858 -235.240938 
L 384.105529 -235.144063 
L 383.839201 -235.047174 
L 383.572872 -234.950172 
L 383.306543 -234.853281 
L 383.040215 -234.756363 
L 382.773886 -234.659433 
L 382.507558 -234.562497 
L 382.241229 -234.465549 
L 381.9749 -234.368677 
L 381.708572 -234.271721 
L 381.442243 -234.174794 
L 381.175915 -234.077869 
L 380.909586 -233.980986 
L 380.643258 -233.884016 
L 380.376929 -233.787132 
L 380.1106 -233.690105 
L 379.844272 -233.593182 
L 379.577943 -233.496334 
L 379.311615 -233.399365 
L 379.045286 -233.302446 
L 378.778957 -233.205551 
L 378.512629 -233.108627 
L 378.2463 -233.01169 
L 377.979972 -232.914777 
L 377.713643 -232.817821 
L 377.447314 -232.720936 
L 377.180986 -232.623959 
L 376.914657 -232.527056 
L 376.648329 -232.430153 
L 376.382 -232.333209 
L 376.115672 -232.23627 
L 375.849343 -232.139366 
L 375.583014 -232.042461 
L 375.316686 -231.945503 
L 375.050357 -231.848597 
L 374.784029 -231.751678 
L 374.5177 -231.654746 
L 374.251371 -231.557787 
L 373.985043 -231.460836 
L 373.718714 -231.36393 
L 373.452386 -231.267004 
L 373.186057 -231.170074 
L 372.919729 -231.073129 
L 372.6534 -230.976189 
L 372.387071 -230.879299 
L 372.120743 -230.782374 
L 371.854414 -230.685461 
L 371.588086 -230.588506 
L 371.321757 -230.491612 
L 371.055428 -230.394675 
L 370.7891 -230.297824 
L 370.522771 -230.200815 
L 370.256443 -230.103888 
L 369.990114 -230.006988 
L 369.723786 -229.910078 
L 369.457457 -229.813187 
L 369.191128 -229.716181 
L 368.9248 -229.619299 
L 368.658471 -229.522348 
L 368.392143 -229.425421 
L 368.125814 -229.328544 
L 367.859485 -229.23156 
L 367.593157 -229.134661 
L 367.326828 -229.037713 
L 367.0605 -228.940832 
L 366.794171 -228.843869 
L 366.527842 -228.746964 
L 366.261514 -228.65003 
L 365.995185 -228.553108 
L 365.728857 -228.456223 
L 365.462528 -228.359321 
L 365.1962 -228.262326 
L 364.929871 -228.165403 
L 364.663542 -228.068558 
L 364.397214 -227.971588 
L 364.130885 -227.874659 
L 363.864557 -227.77774 
L 363.598228 -227.680845 
L 363.331899 -227.583919 
L 363.065571 -227.486977 
L 362.799242 -227.390074 
L 362.532914 -227.293148 
L 362.266585 -227.19626 
L 362.000257 -227.099286 
L 361.733928 -227.002373 
L 361.467599 -226.905496 
L 361.201271 -226.808526 
L 360.934942 -226.711675 
L 360.668614 -226.614704 
L 360.402285 -226.517733 
L 360.135956 -226.420837 
L 359.869628 -226.323884 
L 359.603299 -226.227063 
L 359.336971 -226.130061 
L 359.070642 -226.033242 
L 358.804314 -225.936277 
L 358.537985 -225.839313 
L 358.271656 -225.742381 
L 358.005328 -225.645496 
L 357.738999 -225.548548 
L 357.472671 -225.451621 
L 357.206342 -225.354686 
L 356.940013 -225.25778 
L 356.673685 -225.160874 
L 356.407356 -225.063948 
L 356.141028 -224.967007 
L 355.874699 -224.870138 
L 355.60837 -224.773183 
L 355.342042 -224.676267 
L 355.075713 -224.579461 
L 354.809385 -224.482498 
L 354.543056 -224.385515 
L 354.276728 -224.288611 
L 354.010399 -224.191716 
L 353.74407 -224.094722 
L 353.477742 -223.997901 
L 353.211413 -223.900958 
L 352.945085 -223.804023 
L 352.678756 -223.707106 
L 352.412427 -223.610098 
L 352.146099 -223.513285 
L 351.87977 -223.416333 
L 351.613442 -223.319381 
L 351.347113 -223.222435 
L 351.080785 -223.125533 
L 350.814456 -223.028682 
L 350.548127 -222.931684 
L 350.281799 -222.834778 
L 350.01547 -222.737829 
L 349.749142 -222.640934 
L 349.482813 -222.543986 
L 349.216484 -222.447093 
L 348.950156 -222.350202 
L 348.683827 -222.253254 
L 348.417499 -222.156328 
L 348.15117 -222.059421 
L 347.884842 -221.962514 
L 347.618513 -221.865582 
L 347.352184 -221.768651 
L 347.085856 -221.67174 
L 346.819527 -221.57486 
L 346.553199 -221.477884 
L 346.28687 -221.381007 
L 346.020541 -221.284065 
L 345.754213 -221.187113 
L 345.487884 -221.090252 
L 345.221556 -220.993293 
L 344.955227 -220.896375 
L 344.688899 -220.799501 
L 344.42257 -220.702542 
L 344.156241 -220.605596 
L 343.889913 -220.508697 
L 343.623584 -220.411759 
L 343.357256 -220.314893 
L 343.090927 -220.217957 
L 342.824598 -220.121001 
L 342.55827 -220.024151 
L 342.291941 -219.927239 
L 342.025613 -219.8303 
L 341.759284 -219.733349 
L 341.492955 -219.63645 
L 341.226627 -219.539485 
L 340.960298 -219.442579 
L 340.69397 -219.345767 
L 340.427641 -219.248782 
L 340.161313 -219.151871 
L 339.894984 -219.054907 
L 339.628655 -218.958039 
L 339.362327 -218.861062 
L 339.095998 -218.764249 
L 338.82967 -218.66725 
L 338.563341 -218.570333 
L 338.297012 -218.473488 
L 338.030684 -218.376501 
L 337.764355 -218.279583 
L 337.498027 -218.182651 
L 337.231698 -218.085745 
L 336.96537 -217.988854 
L 336.699041 -217.891893 
L 336.432712 -217.795 
L 336.166384 -217.698089 
L 335.900055 -217.601132 
L 335.633727 -217.504265 
L 335.367398 -217.407263 
L 335.101069 -217.310383 
L 334.834741 -217.21346 
L 334.568412 -217.116583 
L 334.302084 -217.019616 
L 334.035755 -216.922711 
L 333.769427 -216.825785 
L 333.503098 -216.72886 
L 333.236769 -216.631983 
L 332.970441 -216.535086 
L 332.704112 -216.438151 
L 332.437784 -216.341209 
L 332.171455 -216.244336 
L 331.905126 -216.147392 
L 331.638798 -216.050444 
L 331.372469 -215.95358 
L 331.106141 -215.856629 
L 330.839812 -215.759693 
L 330.573483 -215.662814 
L 330.307155 -215.565849 
L 330.040826 -215.468961 
L 329.774498 -215.372035 
L 329.508169 -215.275105 
L 329.241841 -215.178226 
L 328.975512 -215.081317 
L 328.709183 -214.984419 
L 328.442855 -214.887486 
L 328.176526 -214.790586 
L 327.910198 -214.693732 
L 327.643869 -214.596723 
L 327.37754 -214.499791 
L 327.111212 -214.402918 
L 326.844883 -214.305997 
L 326.578555 -214.209109 
L 326.312226 -214.112107 
L 326.045898 -214.015227 
L 325.779569 -213.918289 
L 325.51324 -213.821365 
L 325.246912 -213.724448 
L 324.980583 -213.627555 
L 324.714255 -213.530635 
L 324.447926 -213.433696 
L 324.181597 -213.336828 
L 323.915269 -213.239869 
L 323.64894 -213.142955 
L 323.382612 -213.046102 
L 323.116283 -212.949129 
L 322.849955 -212.852255 
L 322.583626 -212.755314 
L 322.317297 -212.658412 
L 322.050969 -212.561505 
L 321.78464 -212.464532 
L 321.518312 -212.367597 
L 321.251983 -212.270698 
L 320.985654 -212.173777 
L 320.719326 -212.07689 
L 320.452997 -211.97999 
L 320.186669 -211.88307 
L 319.92034 -211.786136 
L 319.654011 -211.689198 
L 319.387683 -211.592274 
L 319.121354 -211.495404 
L 318.855026 -211.398486 
L 318.588697 -211.301578 
L 318.322369 -292.032 
L 318.05604 -211.114856 
L 317.789711 -211.017918 
L 317.523383 -210.920967 
L 317.257054 -210.824054 
L 316.990726 -210.727135 
L 316.724397 -210.630249 
L 316.458068 -210.533262 
L 316.19174 -210.436371 
L 315.925411 -210.339448 
L 315.659083 -210.242514 
L 315.392754 -210.145563 
L 315.126426 -210.048602 
L 314.860097 -209.951702 
L 314.593768 -209.85482 
L 314.32744 -209.757847 
L 314.061111 -209.660895 
L 313.794783 -209.563966 
L 313.528454 -209.467103 
L 313.262125 -209.370155 
L 312.995797 -209.273193 
L 312.729468 -209.176299 
L 312.46314 -209.079367 
L 312.196811 -208.982428 
L 311.930483 -208.885609 
L 311.664154 -208.788595 
L 311.397825 -208.691645 
L 311.131497 -208.594745 
L 310.865168 -208.497889 
L 310.59884 -208.400893 
L 310.332511 -208.303947 
L 310.066182 -208.207021 
L 309.799854 -208.110105 
L 309.533525 -208.013199 
L 309.267197 -207.916265 
L 309.000868 -207.819331 
L 308.734539 -207.722372 
L 308.468211 -207.625485 
L 308.201882 -207.528557 
L 307.935554 -207.431613 
L 307.669225 -207.334731 
L 307.402897 -207.237732 
L 307.136568 -207.140862 
L 306.870239 -207.043963 
L 306.603911 -206.946951 
L 306.337582 -206.850018 
L 306.071254 -206.753109 
L 305.804925 -206.656197 
L 305.538596 -206.559314 
L 305.272268 -206.462384 
L 305.005939 -206.365433 
L 304.739611 -206.268511 
L 304.473282 -206.171547 
L 304.206954 -206.07462 
L 303.940625 -205.977732 
L 303.674296 -205.880792 
L 303.407968 -205.783888 
L 303.141639 -205.686951 
L 302.875311 -205.590149 
L 302.608982 -205.493061 
L 302.342653 -205.396131 
L 302.076325 -205.299207 
L 301.809996 -205.202312 
L 301.543668 -205.105435 
L 301.277339 -205.008472 
L 301.011011 -204.911573 
L 300.744682 -204.814669 
L 300.478353 -204.717698 
L 300.212025 -204.620801 
L 299.945696 -204.523901 
L 299.679368 -204.42691 
L 299.413039 -204.330002 
L 299.14671 -204.233058 
L 298.880382 -204.136186 
L 298.614053 -204.039261 
L 298.347725 -203.942317 
L 298.081396 -203.845347 
L 297.815067 -203.748425 
L 297.548739 -203.651522 
L 297.28241 -203.554592 
L 297.016082 -203.457662 
L 296.749753 -203.360753 
L 296.483425 -203.263831 
L 296.217096 -203.166914 
L 295.950767 -203.070004 
L 295.684439 -202.973045 
L 295.41811 -202.876084 
L 295.151782 -202.779195 
L 294.885453 -202.682265 
L 294.619124 -202.585352 
L 294.352796 -202.488421 
L 294.086467 -202.391508 
L 293.820139 -202.294544 
L 293.55381 -202.197647 
L 293.287482 -202.100733 
L 293.021153 -202.003817 
L 292.754824 -201.906922 
L 292.488496 -201.809943 
L 292.222167 -201.71307 
L 291.955839 -201.616145 
L 291.68951 -201.519184 
L 291.423181 -201.422247 
L 291.156853 -201.325342 
L 290.890524 -231.646946 
L 290.624196 -231.512781 
L 290.357867 -231.378556 
L 290.091539 -231.24434 
L 289.82521 -231.110116 
L 289.558881 -230.975934 
L 289.292553 -230.841715 
L 289.026224 -230.707518 
L 288.759896 -230.573336 
L 288.493567 -230.4391 
L 288.227238 -230.304892 
L 287.96091 -230.170691 
L 287.694581 -230.036478 
L 287.428253 -229.902247 
L 287.161924 -229.768074 
L 286.895595 -229.633844 
L 286.629267 -229.499623 
L 286.362938 -229.365433 
L 286.09661 -229.231211 
L 285.830281 -229.097007 
L 285.563953 -228.962837 
L 285.297624 -228.828573 
L 285.031295 -228.694386 
L 284.764967 -228.56022 
L 284.498638 -228.425986 
L 284.23231 -228.291755 
L 283.965981 -228.15755 
L 283.699652 -228.023353 
L 283.433324 -227.889143 
L 283.166995 -227.754912 
L 282.900667 -227.620723 
L 282.634338 -227.486521 
L 282.36801 -227.352346 
L 282.101681 -227.218123 
L 281.835352 -227.083891 
L 281.569024 -226.949687 
L 281.302695 -226.815469 
L 281.036367 -226.681284 
L 280.770038 -226.547088 
L 280.503709 -226.412899 
L 280.237381 -226.278652 
L 279.971052 -226.144466 
L 279.704724 -226.010259 
L 279.438395 -225.876031 
L 279.172067 -225.741828 
L 278.905738 -225.607648 
L 278.639409 -225.473428 
L 278.373081 -225.33924 
L 278.106752 -225.205008 
L 277.840424 -225.070787 
L 277.574095 -224.936571 
L 277.307766 -224.802389 
L 277.041438 -224.668186 
L 276.775109 -224.533975 
L 276.508781 -224.399759 
L 276.242452 -224.265564 
L 275.976123 -224.131341 
L 275.709795 -223.99713 
L 275.443466 -223.862964 
L 275.177138 -223.728732 
L 274.910809 -223.594523 
L 274.644481 -223.460338 
L 274.378152 -223.326113 
L 274.111823 -223.191886 
L 273.845495 -223.057725 
L 273.579166 -222.923488 
L 273.312838 -222.789274 
L 273.046509 -222.6551 
L 272.78018 -222.520886 
L 272.513852 -222.386675 
L 272.247523 -222.25248 
L 271.981195 -222.118288 
L 271.714866 -221.98407 
L 271.448538 -221.849884 
L 271.182209 -221.715634 
L 270.91588 -221.581446 
L 270.649552 -221.447253 
L 270.383223 -221.313032 
L 270.116895 -221.178853 
L 269.850566 -221.044619 
L 269.584237 -220.910397 
L 269.317909 -220.776213 
L 269.05158 -220.641988 
L 268.785252 -220.507849 
L 268.518923 -220.373588 
L 268.252595 -220.239395 
L 267.986266 -220.105193 
L 267.719937 -219.971002 
L 267.453609 -219.836802 
L 267.18728 -219.702584 
L 266.920952 -219.568424 
L 266.654623 -219.434168 
L 266.388294 -219.299991 
L 266.121966 -219.165779 
L 265.855637 -219.031558 
L 265.589309 -218.897358 
L 265.32298 -218.763184 
L 265.056652 -218.628995 
L 264.790323 -218.494731 
L 264.523994 -218.360532 
L 264.257666 -218.22637 
L 263.991337 -218.092142 
L 263.725009 -217.957996 
L 263.45868 -217.823738 
L 263.192351 -217.689543 
L 262.926023 -217.555312 
L 262.659694 -217.42113 
L 262.393366 -217.286934 
L 262.127037 -217.152727 
L 261.860708 -217.018531 
L 261.59438 -216.884311 
L 261.328051 -216.750131 
L 261.061723 -216.615903 
L 260.795394 -216.481698 
L 260.529066 -216.347514 
L 260.262737 -216.213278 
L 259.996408 -216.079095 
L 259.73008 -215.944907 
L 259.463751 -215.810703 
L 259.197423 -215.676477 
L 258.931094 -215.542309 
L 258.664765 -215.4081 
L 258.398437 -215.273893 
L 258.132108 -215.139719 
L 257.86578 -215.005464 
L 257.599451 -214.87127 
L 257.333123 -214.737078 
L 257.066794 -214.602881 
L 256.800465 -214.468638 
L 256.534137 -214.33448 
L 256.267808 -214.200271 
L 256.00148 -214.066054 
L 255.735151 -213.93187 
L 255.468822 -213.797685 
L 255.202494 -213.663446 
L 254.936165 -213.529265 
L 254.669837 -213.395043 
L 254.403508 -213.260861 
L 254.13718 -213.126642 
L 253.870851 -212.992462 
L 253.604522 -212.858246 
L 253.338194 -212.724063 
L 253.071865 -212.589899 
L 252.805537 -212.455664 
L 252.539208 -212.321462 
L 252.272879 -212.187242 
L 252.006551 -212.053057 
L 251.740222 -211.91885 
L 251.473894 -211.784644 
L 251.207565 -211.650438 
L 250.941236 -211.516302 
L 250.674908 -211.382024 
L 250.408579 -211.247832 
L 250.142251 -211.113673 
L 249.875922 -210.979429 
L 249.609594 -210.845215 
L 249.343265 -210.71103 
L 249.076936 -210.57686 
L 248.810608 -210.442633 
L 248.544279 -210.30844 
L 248.277951 -210.174234 
L 248.011622 -210.040031 
L 247.745293 -209.90582 
L 247.478965 -209.771635 
L 247.212636 -209.637401 
L 246.946308 -209.503231 
L 246.679979 -209.369076 
L 246.413651 -209.234849 
L 246.147322 -209.100663 
L 245.880993 -208.966458 
L 245.614665 -208.832205 
L 245.348336 -208.698004 
L 245.082008 -208.56382 
L 244.815679 -208.429638 
L 244.54935 -208.295426 
L 244.283022 -208.161245 
L 244.016693 -208.027049 
L 243.750365 -207.892833 
L 243.484036 -207.75862 
L 243.217708 -207.624416 
L 242.951379 -207.490252 
L 242.68505 -207.356029 
L 242.418722 -207.221818 
L 242.152393 -207.087626 
L 241.886065 -206.953434 
L 241.619736 -206.81923 
L 241.353407 -206.68505 
L 241.087079 -206.550864 
L 240.82075 -206.416641 
L 240.554422 -206.282442 
L 240.288093 -206.14822 
L 240.021764 -206.014042 
L 239.755436 -205.879856 
L 239.489107 -205.745639 
L 239.222779 -205.611418 
L 238.95645 -205.477225 
L 238.690122 -205.343035 
L 238.423793 -205.208857 
L 238.157464 -205.074621 
L 237.891136 -204.940421 
L 237.624807 -204.806242 
L 237.358479 -204.67204 
L 237.09215 -204.537838 
L 236.825821 -274.009148 
L 236.559493 -204.275927 
L 236.293164 -204.141682 
L 236.026836 -204.007463 
L 235.760507 -203.873283 
L 235.494179 -203.739075 
L 235.22785 -203.604857 
L 234.961521 -203.470674 
L 234.695193 -203.336445 
L 234.428864 -203.202206 
L 234.162536 -203.068002 
L 233.896207 -202.933799 
L 233.629878 -202.799574 
L 233.36355 -202.665386 
L 233.097221 -202.531183 
L 232.830893 -202.396945 
L 232.564564 -202.262761 
L 232.298236 -202.128559 
L 232.031907 -201.994346 
L 231.765578 -201.860116 
L 231.49925 -201.725898 
L 231.232921 -201.591726 
L 230.966593 -201.457484 
L 230.700264 -201.323339 
L 230.433935 -201.189096 
L 230.167607 -201.054891 
L 229.901278 -200.920692 
L 229.63495 -200.786485 
L 229.368621 -200.65225 
L 229.102292 -200.51808 
L 228.835964 -200.383855 
L 228.569635 -200.249679 
L 228.303307 -200.115436 
L 228.036978 -199.981227 
L 227.77065 -199.847044 
L 227.504321 -199.712844 
L 227.237992 -199.578606 
L 226.971664 -199.444394 
L 226.705335 -199.310181 
L 226.439007 -199.17598 
L 226.172678 -199.041763 
L 225.906349 -198.907568 
L 225.640021 -198.773365 
L 225.373692 -198.639136 
L 225.107364 -198.50495 
L 224.841035 -198.370729 
L 224.574707 -198.236516 
L 224.308378 -198.102323 
L 224.042049 -197.968106 
L 223.775721 -197.833911 
L 223.509392 -197.699701 
L 223.243064 -197.565487 
L 222.976735 -197.431311 
L 222.710406 -197.297079 
L 222.444078 -197.162867 
L 222.177749 -197.028726 
L 221.911421 -196.894471 
L 221.645092 -196.760252 
L 221.378764 -196.626043 
L 221.112435 -196.491835 
L 220.846106 -196.357649 
L 220.579778 -196.223442 
L 220.313449 -196.089222 
L 220.047121 -195.95504 
L 219.780792 -195.820819 
L 219.514463 -195.686607 
L 219.248135 -195.552404 
L 218.981806 -195.418204 
L 218.715478 -195.283993 
L 218.449149 -195.1498 
L 218.18282 -195.015608 
L 217.916492 -194.881381 
L 217.650163 -194.747167 
L 217.383835 -194.612983 
L 217.117506 -194.47875 
L 216.851178 -194.344547 
L 216.584849 -194.210387 
L 216.31852 -194.076134 
L 216.052192 -193.941934 
L 215.785863 -193.80774 
L 215.519535 -193.673561 
L 215.253206 -193.539334 
L 214.986877 -193.405138 
L 214.720549 -193.270939 
L 214.45422 -193.136714 
L 214.187892 -193.002512 
L 213.921563 -192.86834 
L 213.655235 -192.734108 
L 213.388906 -192.599895 
L 213.122577 -192.465702 
L 212.856249 -192.331499 
L 212.58992 -192.197289 
L 212.323592 -192.063084 
L 212.057263 -191.928897 
L 211.790934 -191.794664 
L 211.524606 -191.660456 
L 211.258277 -191.526298 
L 210.991949 -191.392045 
L 210.72562 -191.25787 
L 210.459292 -191.123672 
L 210.192963 -190.989446 
L 209.926634 -190.855234 
L 209.660306 -190.721051 
L 209.393977 -190.586846 
L 209.127649 -190.452611 
L 208.86132 -190.318439 
L 208.594991 -190.184242 
L 208.328663 -190.050041 
L 208.062334 -189.91582 
L 207.796006 -189.781604 
L 207.529677 -189.647401 
L 207.263348 -189.513222 
L 206.99702 -189.379013 
L 206.730691 -189.244809 
L 206.464363 -189.110658 
L 206.198034 -188.97639 
L 205.931706 -188.842204 
L 205.665377 -188.708004 
L 205.399048 -188.573805 
L 205.13272 -188.439608 
L 204.866391 -188.305381 
L 204.600063 -188.171184 
L 204.333734 -188.036984 
L 204.067405 -187.902794 
L 203.801077 -187.768572 
L 203.534748 -187.634368 
L 203.26842 -187.500197 
L 203.002091 -187.365967 
L 202.735763 -187.231749 
L 202.469434 -187.097556 
L 202.203105 -186.963371 
L 201.936777 -186.82916 
L 201.670448 -186.69496 
L 201.40412 -186.56076 
L 201.137791 -186.426547 
L 200.871462 -186.292372 
L 200.605134 -186.158145 
L 200.338805 -186.023954 
L 200.072477 -185.889732 
L 199.806148 -185.75553 
L 199.53982 -185.621359 
L 199.273491 -185.487137 
L 199.007162 -185.352943 
L 198.740834 -185.218749 
L 198.474505 -185.084515 
L 198.208177 -184.950327 
L 197.941848 -184.816119 
L 197.675519 -184.681922 
L 197.409191 -184.547744 
L 197.142862 -184.413497 
L 196.876534 -184.279306 
L 196.610205 -184.145096 
L 196.343877 -184.010915 
L 196.077548 -183.876696 
L 195.811219 -183.742528 
L 195.544891 -183.608303 
L 195.278562 -183.47411 
L 195.012234 -183.339848 
L 194.745905 -183.205697 
L 194.479576 -183.071485 
L 194.213248 -182.937269 
L 193.946919 -182.803053 
L 193.680591 -182.668849 
L 193.414262 -182.53469 
L 193.147933 -182.400442 
L 192.881605 -182.266263 
L 192.615276 -182.132049 
L 192.348948 -181.997835 
L 192.082619 -181.863635 
L 191.816291 -181.729466 
L 191.549962 -181.595245 
L 191.283633 -181.46105 
L 191.017305 -181.326835 
L 190.750976 -181.192628 
L 190.484648 -181.058417 
L 190.218319 -180.924225 
L 189.95199 -180.790012 
L 189.685662 -180.655827 
L 189.419333 -180.521641 
L 189.153005 -180.387414 
L 188.886676 -180.253212 
L 188.620348 -180.11901 
L 188.354019 -179.984817 
L 188.08769 -179.850597 
L 187.821362 -179.716418 
L 187.555033 -179.582213 
L 187.288705 -179.447984 
L 187.022376 -179.31379 
L 186.756047 -179.179594 
L 186.489719 -179.045377 
L 186.22339 -178.911186 
L 185.957062 -178.77699 
L 185.690733 -178.642796 
L 185.424405 -178.508571 
L 185.158076 -178.374374 
L 184.891747 -178.240163 
L 184.625419 -178.105972 
L 184.35909 -177.971777 
L 184.092762 -177.837601 
L 183.826433 -177.703368 
L 183.560104 -177.569155 
L 183.293776 -177.434977 
L 183.027447 -177.300788 
L 182.761119 -177.166648 
L 182.49479 -206.305994 
L 182.228461 -176.902904 
L 181.962133 -176.768689 
L 181.695804 -176.6345 
L 181.429476 -176.500321 
L 181.163147 -176.366111 
L 180.896819 -176.231877 
L 180.63049 -176.097682 
L 180.364161 -175.963449 
L 180.097833 -175.82925 
L 179.831504 -175.695043 
L 179.565176 -175.560834 
L 179.298847 -175.426633 
L 179.032518 -175.292408 
L 178.76619 -175.158217 
L 178.499861 -175.024019 
L 178.233533 -174.889799 
L 177.967204 -174.755611 
L 177.700876 -174.621386 
L 177.434547 -174.487194 
L 177.168218 -174.352979 
L 176.90189 -174.218768 
L 176.635561 -174.084557 
L 176.369233 -173.950362 
L 176.102904 -173.816153 
L 175.836575 -173.681968 
L 175.570247 -173.54773 
L 175.303918 -173.413542 
L 175.03759 -173.279312 
L 174.771261 -173.145156 
L 174.504933 -173.010906 
L 174.238604 -172.876695 
L 173.972275 -172.742494 
L 173.705947 -172.608307 
L 173.439618 -172.474078 
L 173.17329 -172.339918 
L 172.906961 -172.205691 
L 172.640632 -172.071485 
L 172.374304 -171.93728 
L 172.107975 -171.803081 
L 171.841647 -171.668864 
L 171.575318 -171.534688 
L 171.308989 -171.400449 
L 171.042661 -171.266239 
L 170.776332 -171.132034 
L 170.510004 -170.997858 
L 170.243675 -170.863631 
L 169.977347 -170.729417 
L 169.711018 -170.595217 
L 169.444689 -170.460991 
L 169.178361 -170.326808 
L 168.912032 -170.192623 
L 168.645704 -170.058375 
L 168.379375 -169.924194 
L 168.113046 -169.789978 
L 167.846718 -169.65579 
L 167.580389 -169.521595 
L 167.314061 -169.387383 
L 167.047732 -169.253165 
L 166.781404 -169.118956 
L 166.515075 -168.984737 
L 166.248746 -168.850561 
L 165.982418 -168.716364 
L 165.716089 -168.582135 
L 165.449761 -168.447941 
L 165.183432 -168.313751 
L 164.917103 -168.179521 
L 164.650775 -168.045327 
L 164.384446 -167.911113 
L 164.118118 -167.776916 
L 163.851789 -167.642711 
L 163.585461 -167.50851 
L 163.319132 -167.374322 
L 163.052803 -167.240117 
L 162.786475 -167.105908 
L 162.520146 -166.971707 
L 162.253818 -166.837511 
L 161.987489 -166.703282 
L 161.72116 -166.569084 
L 161.454832 -166.434865 
L 161.188503 -166.300664 
L 160.922175 -166.166472 
L 160.655846 -166.032271 
L 160.389517 -165.89813 
L 160.123189 -165.763894 
L 159.85686 -165.629673 
L 159.590532 -165.495467 
L 159.324203 -165.361235 
L 159.057875 -165.227056 
L 158.791546 -165.09285 
L 158.525217 -164.958658 
L 158.258889 -164.82446 
L 157.99256 -164.690246 
L 157.726232 -164.556039 
L 157.459903 -164.421859 
L 157.193574 -164.287636 
L 156.927246 -164.153447 
L 156.660917 -164.019256 
L 156.394589 -163.885032 
L 156.12826 -163.750838 
L 155.861932 -163.616632 
L 155.595603 -163.482436 
L 155.329274 -166.798679 
L 155.062946 -163.215602 
L 154.796617 -163.081401 
L 154.530289 -162.947187 
L 154.26396 -162.813021 
L 153.997631 -162.678787 
L 153.731303 -162.544554 
L 153.464974 -162.410406 
L 153.198646 -162.276167 
L 152.932317 -162.14197 
L 152.665989 -162.007787 
L 152.39966 -161.873573 
L 152.133331 -161.739379 
L 151.867003 -161.605173 
L 151.600674 -161.470961 
L 151.334346 -161.336738 
L 151.068017 -161.202557 
L 150.801688 -161.068375 
L 150.53536 -160.93413 
L 150.269031 -160.79993 
L 150.002703 -160.665738 
L 149.736374 -160.531521 
L 149.470045 -160.397326 
L 149.203717 -160.263134 
L 148.937388 -160.128909 
L 148.67106 -159.994705 
L 148.404731 -159.860534 
L 148.138403 -159.726289 
L 147.872074 -159.592094 
L 147.605745 -159.457932 
L 147.339417 -159.323688 
L 147.073088 -159.189467 
L 146.80676 -159.055308 
L 146.540431 -158.921081 
L 146.274102 -158.78687 
L 146.007774 -158.652694 
L 145.741445 -158.518488 
L 145.475117 -158.38428 
L 145.208788 -158.250047 
L 144.94246 -158.115863 
L 144.676131 -157.981665 
L 144.409802 -157.847465 
L 144.143474 -157.71328 
L 143.877145 -157.579059 
L 143.610817 -157.444851 
L 143.344488 -157.310657 
L 143.078159 -157.176459 
L 142.811831 -157.042246 
L 142.545502 -156.908024 
L 142.279174 -156.773845 
L 142.012845 -156.639663 
L 141.746517 -156.505437 
L 141.480188 -156.371245 
L 141.213859 -156.237039 
L 140.947531 -156.10284 
L 140.681202 -155.96863 
L 140.414874 -155.83442 
L 140.148545 -155.700233 
L 139.882216 -155.565998 
L 139.615888 -155.431838 
L 139.349559 -155.297634 
L 139.083231 -155.16348 
L 138.816902 -155.029239 
L 138.550573 -154.895031 
L 138.284245 -154.760828 
L 138.017916 -154.626622 
L 137.751588 -154.492474 
L 137.485259 -154.358212 
L 137.218931 -154.224015 
L 136.952602 -154.089812 
L 136.686273 -153.955604 
L 136.419945 -153.821406 
L 136.153616 -153.687198 
L 135.887288 -153.552989 
L 135.620959 -153.418784 
L 135.35463 -153.284607 
L 135.088302 -153.150439 
L 134.821973 -153.016209 
L 134.555645 -152.88199 
L 134.289316 -152.747758 
L 134.022988 -152.613592 
L 133.756659 -152.479386 
L 133.49033 -152.34517 
L 133.224002 -152.210955 
L 132.957673 -152.076795 
L 132.691345 -151.942586 
L 132.425016 -151.808387 
L 132.158687 -151.674177 
L 131.892359 -151.539977 
L 131.62603 -151.405748 
L 131.359702 -151.27156 
L 131.093373 -151.137374 
L 130.827045 -151.003168 
L 130.560716 -150.868995 
L 130.294387 -150.734794 
L 130.028059 -150.600571 
L 129.76173 -150.466375 
L 129.495402 -150.332184 
L 129.229073 -150.197972 
L 128.962744 -150.06376 
L 128.696416 -149.929582 
L 128.430087 -149.795374 
L 128.163759 -164.334415 
L 127.89743 -149.531771 
L 127.631101 -149.397584 
L 127.364773 -149.263398 
L 127.098444 -149.129148 
L 126.832116 -148.994936 
L 126.565787 -148.860739 
L 126.299459 -148.726525 
L 126.03313 -148.592294 
L 125.766801 -148.458068 
L 125.500473 -148.323893 
L 125.234144 -148.189676 
L 124.967816 -148.055471 
L 124.701487 -147.921249 
L 124.435158 -147.787041 
L 124.16883 -147.652849 
L 123.902501 -147.518643 
L 123.636173 -147.384425 
L 123.369844 -147.250213 
L 123.103516 -147.116004 
L 122.837187 -146.981798 
L 122.570858 -146.84761 
L 122.30453 -146.713377 
L 122.038201 -146.579201 
L 121.771873 -146.444997 
L 121.505544 -146.310765 
L 121.239215 -146.176556 
L 120.972887 -146.042347 
L 120.706558 -145.908154 
L 120.44023 -145.773942 
L 120.173901 -145.639743 
L 119.907573 -145.505534 
L 119.641244 -145.371323 
L 119.374915 -145.237113 
L 119.108587 -145.102913 
L 118.842258 -144.968707 
L 118.57593 -144.834491 
L 118.309601 -144.70028 
L 118.043272 -144.56607 
L 117.776944 -144.431879 
L 117.510615 -144.297659 
L 117.244287 -144.163456 
L 116.977958 -144.029235 
L 116.71163 -143.895033 
L 116.445301 -143.760853 
L 116.178972 -143.626652 
L 115.912644 -143.492447 
L 115.646315 -143.358195 
L 115.379987 -143.223984 
L 115.113658 -143.089794 
L 114.847329 -142.955606 
L 114.581001 -142.821387 
L 114.314672 -142.687192 
L 114.048344 -142.552961 
L 113.782015 -142.418775 
L 113.515686 -142.284567 
L 113.249358 -142.150339 
L 112.983029 -142.016132 
L 112.716701 -141.881933 
L 112.450372 -141.747717 
L 112.184044 -141.613508 
L 111.917715 -141.479312 
L 111.651386 -141.345121 
L 111.385058 -141.210905 
L 111.118729 -141.076683 
L 110.852401 -140.942488 
L 110.586072 -140.80827 
L 110.319743 -140.674072 
L 110.053415 -140.539886 
L 109.787086 -140.405648 
L 109.520758 -140.27146 
L 109.254429 -140.137257 
L 108.988101 -140.003035 
L 108.721772 -139.868844 
L 108.455443 -139.734622 
L 108.189115 -139.600427 
L 107.922786 -139.466249 
L 107.656458 -139.332024 
L 107.390129 -139.19781 
L 107.1238 -139.063598 
L 106.857472 -138.929413 
L 106.591143 -138.795193 
L 106.324815 -138.660988 
L 106.058486 -138.526779 
L 105.792158 -138.392585 
L 105.525829 -138.258369 
L 105.2595 -138.124169 
L 104.993172 -137.989995 
L 104.726843 -137.855764 
L 104.460515 -137.721557 
L 104.194186 -137.587366 
L 103.927857 -137.45316 
L 103.661529 -137.318925 
L 103.3952 -137.184732 
L 103.128872 -137.050544 
L 102.862543 -136.916326 
L 102.596214 -136.782109 
L 102.329886 -136.647901 
L 102.063557 -136.513708 
L 101.797229 -136.3795 
L 101.5309 -136.2453 
L 101.264572 -136.111102 
L 100.998243 -135.976906 
L 100.731914 -135.842689 
L 100.465586 -135.708482 
L 100.199257 -135.574292 
L 99.932929 -135.440098 
L 99.6666 -135.305877 
L 99.400271 -135.171679 
L 99.133943 -135.037481 
L 98.867614 -134.903261 
L 98.601286 -134.76907 
L 98.334957 -134.634855 
L 98.068629 -134.500662 
L 97.8023 -134.366465 
L 97.535971 -134.232255 
L 97.269643 -134.098057 
L 97.003314 -133.963832 
L 96.736986 -133.829634 
L 96.470657 -133.695443 
L 96.204328 -133.561235 
L 95.938 -133.427032 
L 95.671671 -133.292838 
L 95.405343 -133.158632 
L 95.139014 -133.024419 
L 94.872686 -132.890229 
L 94.606357 -132.756019 
L 94.340028 -132.621814 
L 94.0737 -132.487614 
L 93.807371 -132.353423 
L 93.541043 -132.219221 
L 93.274714 -132.08501 
L 93.008385 -131.950823 
L 92.742057 -131.816603 
L 92.475728 -131.682403 
L 92.2094 -131.548193 
L 91.943071 -131.413991 
L 91.676742 -131.279797 
L 91.410414 -131.145598 
L 91.144085 -131.011396 
L 90.877757 -130.877185 
L 90.611428 -130.743 
L 90.3451 -130.608796 
L 90.078771 -130.474605 
L 89.812442 -130.340392 
L 89.546114 -130.206193 
L 89.279785 -130.071986 
L 89.013457 -129.937793 
L 88.747128 -129.803596 
L 88.480799 -129.669386 
L 88.214471 -129.535189 
L 87.948142 -129.400987 
L 87.681814 -129.266781 
L 87.415485 -129.13257 
L 87.149157 -128.998377 
L 86.882828 -128.86417 
L 86.616499 -128.729978 
L 86.350171 -128.595775 
L 86.083842 -128.461572 
L 85.817514 -128.327384 
L 85.551185 -128.193169 
L 85.284856 -128.058956 
L 85.018528 -127.924757 
L 84.752199 -127.790561 
L 84.485871 -127.656368 
L 84.219542 -127.522156 
L 83.953214 -127.387957 
L 83.686885 -127.253748 
L 83.420556 -127.119553 
L 83.154228 -126.985355 
L 82.887899 -126.851149 
L 82.621571 -126.716951 
L 82.355242 -126.58275 
L 82.088913 -126.448543 
L 81.822585 -126.314348 
L 81.556256 -126.180157 
L 81.289928 -126.045951 
L 81.023599 -125.911738 
L 80.75727 -125.77754 
L 80.490942 -125.643348 
L 80.224613 -125.509144 
L 79.958285 -125.374933 
L 79.691956 -125.240729 
L 79.425628 -125.106525 
L 79.159299 -124.972338 
L 78.89297 -124.838112 
L 78.626642 -124.703915 
L 78.360313 -124.569712 
L 78.093985 -124.435507 
L 77.827656 -124.301296 
L 77.561327 -124.167094 
L 77.294999 -124.032897 
L 77.02867 -123.898679 
L 76.762342 -123.76447 
L 76.496013 -123.630248 
L 76.229685 -123.496047 
L 75.963356 -123.36183 
L 75.697027 -123.227623 
L 75.430699 -123.093413 
L 75.16437 -122.959187 
L 74.898042 -122.824996 
L 74.631713 -122.690765 
L 74.365384 -122.556588 
L 74.099056 -122.422451 
L 73.832727 -122.401785 
z
" style="stroke: #808080; stroke-opacity: 0.2"/>
    </defs>
    <g clip-path="url(#p4f95d74470)">
     <use xlink:href="#m4102d7017d" x="0" y="345.6" style="fill: #808080; fill-opacity: 0.2; stroke: #808080; stroke-opacity: 0.2"/>
    </g>
   </g>
   <g id="matplotlib.axis_1">
    <g id="xtick_1">
     <g id="line2d_1">
      <defs>
       <path id="m7ff649441e" d="M 0 0 
L 0 3.5 
" style="stroke: #000000; stroke-width: 0.8"/>
      </defs>
      <g>
       <use xlink:href="#m7ff649441e" x="73.832727" y="307.584" style="stroke: #000000; stroke-width: 0.8"/>
      </g>
     </g>
     <g id="text_1">
      <!-- 0 -->
      <g transform="translate(70.651477 322.182437) scale(0.1 -0.1)">
       <defs>
        <path id="DejaVuSans-30" d="M 2034 4250 
Q 1547 4250 1301 3770 
Q 1056 3291 1056 2328 
Q 1056 1369 1301 889 
Q 1547 409 2034 409 
Q 2525 409 2770 889 
Q 3016 1369 3016 2328 
Q 3016 3291 2770 3770 
Q 2525 4250 2034 4250 
z
M 2034 4750 
Q 2819 4750 3233 4129 
Q 3647 3509 3647 2328 
Q 3647 1150 3233 529 
Q 2819 -91 2034 -91 
Q 1250 -91 836 529 
Q 422 1150 422 2328 
Q 422 3509 836 4129 
Q 1250 4750 2034 4750 
z
" transform="scale(0.015625)"/>
       </defs>
       <use xlink:href="#DejaVuSans-30"/>
      </g>
     </g>
    </g>
    <g id="xtick_2">
     <g id="line2d_2">
      <g>
       <use xlink:href="#m7ff649441e" x="127.098444" y="307.584" style="stroke: #000000; stroke-width: 0.8"/>
      </g>
     </g>
     <g id="text_2">
      <!-- 200 -->
      <g transform="translate(117.554694 322.182437) scale(0.1 -0.1)">
       <defs>
        <path id="DejaVuSans-32" d="M 1228 531 
L 3431 531 
L 3431 0 
L 469 0 
L 469 531 
Q 828 903 1448 1529 
Q 2069 2156 2228 2338 
Q 2531 2678 2651 2914 
Q 2772 3150 2772 3378 
Q 2772 3750 2511 3984 
Q 2250 4219 1831 4219 
Q 1534 4219 1204 4116 
Q 875 4013 500 3803 
L 500 4441 
Q 881 4594 1212 4672 
Q 1544 4750 1819 4750 
Q 2544 4750 2975 4387 
Q 3406 4025 3406 3419 
Q 3406 3131 3298 2873 
Q 3191 2616 2906 2266 
Q 2828 2175 2409 1742 
Q 1991 1309 1228 531 
z
" transform="scale(0.015625)"/>
       </defs>
       <use xlink:href="#DejaVuSans-32"/>
       <use xlink:href="#DejaVuSans-30" x="63.623047"/>
       <use xlink:href="#DejaVuSans-30" x="127.246094"/>
      </g>
     </g>
    </g>
    <g id="xtick_3">
     <g id="line2d_3">
      <g>
       <use xlink:href="#m7ff649441e" x="180.364161" y="307.584" style="stroke: #000000; stroke-width: 0.8"/>
      </g>
     </g>
     <g id="text_3">
      <!-- 400 -->
      <g transform="translate(170.820411 322.182437) scale(0.1 -0.1)">
       <defs>
        <path id="DejaVuSans-34" d="M 2419 4116 
L 825 1625 
L 2419 1625 
L 2419 4116 
z
M 2253 4666 
L 3047 4666 
L 3047 1625 
L 3713 1625 
L 3713 1100 
L 3047 1100 
L 3047 0 
L 2419 0 
L 2419 1100 
L 313 1100 
L 313 1709 
L 2253 4666 
z
" transform="scale(0.015625)"/>
       </defs>
       <use xlink:href="#DejaVuSans-34"/>
       <use xlink:href="#DejaVuSans-30" x="63.623047"/>
       <use xlink:href="#DejaVuSans-30" x="127.246094"/>
      </g>
     </g>
    </g>
    <g id="xtick_4">
     <g id="line2d_4">
      <g>
       <use xlink:href="#m7ff649441e" x="233.629878" y="307.584" style="stroke: #000000; stroke-width: 0.8"/>
      </g>
     </g>
     <g id="text_4">
      <!-- 600 -->
      <g transform="translate(224.086128 322.182437) scale(0.1 -0.1)">
       <defs>
        <path id="DejaVuSans-36" d="M 2113 2584 
Q 1688 2584 1439 2293 
Q 1191 2003 1191 1497 
Q 1191 994 1439 701 
Q 1688 409 2113 409 
Q 2538 409 2786 701 
Q 3034 994 3034 1497 
Q 3034 2003 2786 2293 
Q 2538 2584 2113 2584 
z
M 3366 4563 
L 3366 3988 
Q 3128 4100 2886 4159 
Q 2644 4219 2406 4219 
Q 1781 4219 1451 3797 
Q 1122 3375 1075 2522 
Q 1259 2794 1537 2939 
Q 1816 3084 2150 3084 
Q 2853 3084 3261 2657 
Q 3669 2231 3669 1497 
Q 3669 778 3244 343 
Q 2819 -91 2113 -91 
Q 1303 -91 875 529 
Q 447 1150 447 2328 
Q 447 3434 972 4092 
Q 1497 4750 2381 4750 
Q 2619 4750 2861 4703 
Q 3103 4656 3366 4563 
z
" transform="scale(0.015625)"/>
       </defs>
       <use xlink:href="#DejaVuSans-36"/>
       <use xlink:href="#DejaVuSans-30" x="63.623047"/>
       <use xlink:href="#DejaVuSans-30" x="127.246094"/>
      </g>
     </g>
    </g>
    <g id="xtick_5">
     <g id="line2d_5">
      <g>
       <use xlink:href="#m7ff649441e" x="286.895595" y="307.584" style="stroke: #000000; stroke-width: 0.8"/>
      </g>
     </g>
     <g id="text_5">
      <!-- 800 -->
      <g transform="translate(277.351845 322.182437) scale(0.1 -0.1)">
       <defs>
        <path id="DejaVuSans-38" d="M 2034 2216 
Q 1584 2216 1326 1975 
Q 1069 1734 1069 1313 
Q 1069 891 1326 650 
Q 1584 409 2034 409 
Q 2484 409 2743 651 
Q 3003 894 3003 1313 
Q 3003 1734 2745 1975 
Q 2488 2216 2034 2216 
z
M 1403 2484 
Q 997 2584 770 2862 
Q 544 3141 544 3541 
Q 544 4100 942 4425 
Q 1341 4750 2034 4750 
Q 2731 4750 3128 4425 
Q 3525 4100 3525 3541 
Q 3525 3141 3298 2862 
Q 3072 2584 2669 2484 
Q 3125 2378 3379 2068 
Q 3634 1759 3634 1313 
Q 3634 634 3220 271 
Q 2806 -91 2034 -91 
Q 1263 -91 848 271 
Q 434 634 434 1313 
Q 434 1759 690 2068 
Q 947 2378 1403 2484 
z
M 1172 3481 
Q 1172 3119 1398 2916 
Q 1625 2713 2034 2713 
Q 2441 2713 2670 2916 
Q 2900 3119 2900 3481 
Q 2900 3844 2670 4047 
Q 2441 4250 2034 4250 
Q 1625 4250 1398 4047 
Q 1172 3844 1172 3481 
z
" transform="scale(0.015625)"/>
       </defs>
       <use xlink:href="#DejaVuSans-38"/>
       <use xlink:href="#DejaVuSans-30" x="63.623047"/>
       <use xlink:href="#DejaVuSans-30" x="127.246094"/>
      </g>
     </g>
    </g>
    <g id="xtick_6">
     <g id="line2d_6">
      <g>
       <use xlink:href="#m7ff649441e" x="340.161313" y="307.584" style="stroke: #000000; stroke-width: 0.8"/>
      </g>
     </g>
     <g id="text_6">
      <!-- 1000 -->
      <g transform="translate(327.436313 322.182437) scale(0.1 -0.1)">
       <defs>
        <path id="DejaVuSans-31" d="M 794 531 
L 1825 531 
L 1825 4091 
L 703 3866 
L 703 4441 
L 1819 4666 
L 2450 4666 
L 2450 531 
L 3481 531 
L 3481 0 
L 794 0 
L 794 531 
z
" transform="scale(0.015625)"/>
       </defs>
       <use xlink:href="#DejaVuSans-31"/>
       <use xlink:href="#DejaVuSans-30" x="63.623047"/>
       <use xlink:href="#DejaVuSans-30" x="127.246094"/>
       <use xlink:href="#DejaVuSans-30" x="190.869141"/>
      </g>
     </g>
    </g>
    <g id="xtick_7">
     <g id="line2d_7">
      <g>
       <use xlink:href="#m7ff649441e" x="393.42703" y="307.584" style="stroke: #000000; stroke-width: 0.8"/>
      </g>
     </g>
     <g id="text_7">
      <!-- 1200 -->
      <g transform="translate(380.70203 322.182437) scale(0.1 -0.1)">
       <use xlink:href="#DejaVuSans-31"/>
       <use xlink:href="#DejaVuSans-32" x="63.623047"/>
       <use xlink:href="#DejaVuSans-30" x="127.246094"/>
       <use xlink:href="#DejaVuSans-30" x="190.869141"/>
      </g>
     </g>
    </g>
    <g id="text_8">
     <!-- TimeSteps -->
     <g transform="translate(209.936562 335.860562) scale(0.1 -0.1)">
      <defs>
       <path id="DejaVuSans-54" d="M -19 4666 
L 3928 4666 
L 3928 4134 
L 2272 4134 
L 2272 0 
L 1638 0 
L 1638 4134 
L -19 4134 
L -19 4666 
z
" transform="scale(0.015625)"/>
       <path id="DejaVuSans-69" d="M 603 3500 
L 1178 3500 
L 1178 0 
L 603 0 
L 603 3500 
z
M 603 4863 
L 1178 4863 
L 1178 4134 
L 603 4134 
L 603 4863 
z
" transform="scale(0.015625)"/>
       <path id="DejaVuSans-6d" d="M 3328 2828 
Q 3544 3216 3844 3400 
Q 4144 3584 4550 3584 
Q 5097 3584 5394 3201 
Q 5691 2819 5691 2113 
L 5691 0 
L 5113 0 
L 5113 2094 
Q 5113 2597 4934 2840 
Q 4756 3084 4391 3084 
Q 3944 3084 3684 2787 
Q 3425 2491 3425 1978 
L 3425 0 
L 2847 0 
L 2847 2094 
Q 2847 2600 2669 2842 
Q 2491 3084 2119 3084 
Q 1678 3084 1418 2786 
Q 1159 2488 1159 1978 
L 1159 0 
L 581 0 
L 581 3500 
L 1159 3500 
L 1159 2956 
Q 1356 3278 1631 3431 
Q 1906 3584 2284 3584 
Q 2666 3584 2933 3390 
Q 3200 3197 3328 2828 
z
" transform="scale(0.015625)"/>
       <path id="DejaVuSans-65" d="M 3597 1894 
L 3597 1613 
L 953 1613 
Q 991 1019 1311 708 
Q 1631 397 2203 397 
Q 2534 397 2845 478 
Q 3156 559 3463 722 
L 3463 178 
Q 3153 47 2828 -22 
Q 2503 -91 2169 -91 
Q 1331 -91 842 396 
Q 353 884 353 1716 
Q 353 2575 817 3079 
Q 1281 3584 2069 3584 
Q 2775 3584 3186 3129 
Q 3597 2675 3597 1894 
z
M 3022 2063 
Q 3016 2534 2758 2815 
Q 2500 3097 2075 3097 
Q 1594 3097 1305 2825 
Q 1016 2553 972 2059 
L 3022 2063 
z
" transform="scale(0.015625)"/>
       <path id="DejaVuSans-53" d="M 3425 4513 
L 3425 3897 
Q 3066 4069 2747 4153 
Q 2428 4238 2131 4238 
Q 1616 4238 1336 4038 
Q 1056 3838 1056 3469 
Q 1056 3159 1242 3001 
Q 1428 2844 1947 2747 
L 2328 2669 
Q 3034 2534 3370 2195 
Q 3706 1856 3706 1288 
Q 3706 609 3251 259 
Q 2797 -91 1919 -91 
Q 1588 -91 1214 -16 
Q 841 59 441 206 
L 441 856 
Q 825 641 1194 531 
Q 1563 422 1919 422 
Q 2459 422 2753 634 
Q 3047 847 3047 1241 
Q 3047 1584 2836 1778 
Q 2625 1972 2144 2069 
L 1759 2144 
Q 1053 2284 737 2584 
Q 422 2884 422 3419 
Q 422 4038 858 4394 
Q 1294 4750 2059 4750 
Q 2388 4750 2728 4690 
Q 3069 4631 3425 4513 
z
" transform="scale(0.015625)"/>
       <path id="DejaVuSans-74" d="M 1172 4494 
L 1172 3500 
L 2356 3500 
L 2356 3053 
L 1172 3053 
L 1172 1153 
Q 1172 725 1289 603 
Q 1406 481 1766 481 
L 2356 481 
L 2356 0 
L 1766 0 
Q 1100 0 847 248 
Q 594 497 594 1153 
L 594 3053 
L 172 3053 
L 172 3500 
L 594 3500 
L 594 4494 
L 1172 4494 
z
" transform="scale(0.015625)"/>
       <path id="DejaVuSans-70" d="M 1159 525 
L 1159 -1331 
L 581 -1331 
L 581 3500 
L 1159 3500 
L 1159 2969 
Q 1341 3281 1617 3432 
Q 1894 3584 2278 3584 
Q 2916 3584 3314 3078 
Q 3713 2572 3713 1747 
Q 3713 922 3314 415 
Q 2916 -91 2278 -91 
Q 1894 -91 1617 61 
Q 1341 213 1159 525 
z
M 3116 1747 
Q 3116 2381 2855 2742 
Q 2594 3103 2138 3103 
Q 1681 3103 1420 2742 
Q 1159 2381 1159 1747 
Q 1159 1113 1420 752 
Q 1681 391 2138 391 
Q 2594 391 2855 752 
Q 3116 1113 3116 1747 
z
" transform="scale(0.015625)"/>
       <path id="DejaVuSans-73" d="M 2834 3397 
L 2834 2853 
Q 2591 2978 2328 3040 
Q 2066 3103 1784 3103 
Q 1356 3103 1142 2972 
Q 928 2841 928 2578 
Q 928 2378 1081 2264 
Q 1234 2150 1697 2047 
L 1894 2003 
Q 2506 1872 2764 1633 
Q 3022 1394 3022 966 
Q 3022 478 2636 193 
Q 2250 -91 1575 -91 
Q 1294 -91 989 -36 
Q 684 19 347 128 
L 347 722 
Q 666 556 975 473 
Q 1284 391 1588 391 
Q 1994 391 2212 530 
Q 2431 669 2431 922 
Q 2431 1156 2273 1281 
Q 2116 1406 1581 1522 
L 1381 1569 
Q 847 1681 609 1914 
Q 372 2147 372 2553 
Q 372 3047 722 3315 
Q 1072 3584 1716 3584 
Q 2034 3584 2315 3537 
Q 2597 3491 2834 3397 
z
" transform="scale(0.015625)"/>
      </defs>
      <use xlink:href="#DejaVuSans-54"/>
      <use xlink:href="#DejaVuSans-69" x="57.958984"/>
      <use xlink:href="#DejaVuSans-6d" x="85.742188"/>
      <use xlink:href="#DejaVuSans-65" x="183.154297"/>
      <use xlink:href="#DejaVuSans-53" x="244.677734"/>
      <use xlink:href="#DejaVuSans-74" x="308.154297"/>
      <use xlink:href="#DejaVuSans-65" x="347.363281"/>
      <use xlink:href="#DejaVuSans-70" x="408.886719"/>
      <use xlink:href="#DejaVuSans-73" x="472.363281"/>
     </g>
    </g>
   </g>
   <g id="matplotlib.axis_2">
    <g id="ytick_1">
     <g id="line2d_8">
      <defs>
       <path id="m80eea03ba8" d="M 0 0 
L -3.5 0 
" style="stroke: #000000; stroke-width: 0.8"/>
      </defs>
      <g>
       <use xlink:href="#m80eea03ba8" x="57.6" y="272.507224" style="stroke: #000000; stroke-width: 0.8"/>
      </g>
     </g>
     <g id="text_9">
      <!-- 0.5 -->
      <g transform="translate(26.317187 276.306443) scale(0.1 -0.1)">
       <defs>
        <path id="DejaVuSans-2212" d="M 678 2272 
L 4684 2272 
L 4684 1741 
L 678 1741 
L 678 2272 
z
" transform="scale(0.015625)"/>
        <path id="DejaVuSans-2e" d="M 684 794 
L 1344 794 
L 1344 0 
L 684 0 
L 684 794 
z
" transform="scale(0.015625)"/>
        <path id="DejaVuSans-35" d="M 691 4666 
L 3169 4666 
L 3169 4134 
L 1269 4134 
L 1269 2991 
Q 1406 3038 1543 3061 
Q 1681 3084 1819 3084 
Q 2600 3084 3056 2656 
Q 3513 2228 3513 1497 
Q 3513 744 3044 326 
Q 2575 -91 1722 -91 
Q 1428 -91 1123 -41 
Q 819 9 494 109 
L 494 744 
Q 775 591 1075 516 
Q 1375 441 1709 441 
Q 2250 441 2565 725 
Q 2881 1009 2881 1497 
Q 2881 1984 2565 2268 
Q 2250 2553 1709 2553 
Q 1456 2553 1204 2497 
Q 953 2441 691 2322 
L 691 4666 
z
" transform="scale(0.015625)"/>
       </defs>
       <use xlink:href="#DejaVuSans-2212"/>
       <use xlink:href="#DejaVuSans-30" x="83.789062"/>
       <use xlink:href="#DejaVuSans-2e" x="147.412109"/>
       <use xlink:href="#DejaVuSans-35" x="179.199219"/>
      </g>
     </g>
    </g>
    <g id="ytick_2">
     <g id="line2d_9">
      <g>
       <use xlink:href="#m80eea03ba8" x="57.6" y="223.446221" style="stroke: #000000; stroke-width: 0.8"/>
      </g>
     </g>
     <g id="text_10">
      <!-- 0.0 -->
      <g transform="translate(34.696875 227.24544) scale(0.1 -0.1)">
       <use xlink:href="#DejaVuSans-30"/>
       <use xlink:href="#DejaVuSans-2e" x="63.623047"/>
       <use xlink:href="#DejaVuSans-30" x="95.410156"/>
      </g>
     </g>
    </g>
    <g id="ytick_3">
     <g id="line2d_10">
      <g>
       <use xlink:href="#m80eea03ba8" x="57.6" y="174.385219" style="stroke: #000000; stroke-width: 0.8"/>
      </g>
     </g>
     <g id="text_11">
      <!-- 0.5 -->
      <g transform="translate(34.696875 178.184437) scale(0.1 -0.1)">
       <use xlink:href="#DejaVuSans-30"/>
       <use xlink:href="#DejaVuSans-2e" x="63.623047"/>
       <use xlink:href="#DejaVuSans-35" x="95.410156"/>
      </g>
     </g>
    </g>
    <g id="ytick_4">
     <g id="line2d_11">
      <g>
       <use xlink:href="#m80eea03ba8" x="57.6" y="125.324216" style="stroke: #000000; stroke-width: 0.8"/>
      </g>
     </g>
     <g id="text_12">
      <!-- 1.0 -->
      <g transform="translate(34.696875 129.123434) scale(0.1 -0.1)">
       <use xlink:href="#DejaVuSans-31"/>
       <use xlink:href="#DejaVuSans-2e" x="63.623047"/>
       <use xlink:href="#DejaVuSans-30" x="95.410156"/>
      </g>
     </g>
    </g>
    <g id="ytick_5">
     <g id="line2d_12">
      <g>
       <use xlink:href="#m80eea03ba8" x="57.6" y="76.263213" style="stroke: #000000; stroke-width: 0.8"/>
      </g>
     </g>
     <g id="text_13">
      <!-- 1.5 -->
      <g transform="translate(34.696875 80.062432) scale(0.1 -0.1)">
       <use xlink:href="#DejaVuSans-31"/>
       <use xlink:href="#DejaVuSans-2e" x="63.623047"/>
       <use xlink:href="#DejaVuSans-35" x="95.410156"/>
      </g>
     </g>
    </g>
    <g id="text_14">
     <!-- Moving Mean Reward -->
     <g transform="translate(20.2375 228.0155) rotate(-90) scale(0.1 -0.1)">
      <defs>
       <path id="DejaVuSans-4d" d="M 628 4666 
L 1569 4666 
L 2759 1491 
L 3956 4666 
L 4897 4666 
L 4897 0 
L 4281 0 
L 4281 4097 
L 3078 897 
L 2444 897 
L 1241 4097 
L 1241 0 
L 628 0 
L 628 4666 
z
" transform="scale(0.015625)"/>
       <path id="DejaVuSans-6f" d="M 1959 3097 
Q 1497 3097 1228 2736 
Q 959 2375 959 1747 
Q 959 1119 1226 758 
Q 1494 397 1959 397 
Q 2419 397 2687 759 
Q 2956 1122 2956 1747 
Q 2956 2369 2687 2733 
Q 2419 3097 1959 3097 
z
M 1959 3584 
Q 2709 3584 3137 3096 
Q 3566 2609 3566 1747 
Q 3566 888 3137 398 
Q 2709 -91 1959 -91 
Q 1206 -91 779 398 
Q 353 888 353 1747 
Q 353 2609 779 3096 
Q 1206 3584 1959 3584 
z
" transform="scale(0.015625)"/>
       <path id="DejaVuSans-76" d="M 191 3500 
L 800 3500 
L 1894 563 
L 2988 3500 
L 3597 3500 
L 2284 0 
L 1503 0 
L 191 3500 
z
" transform="scale(0.015625)"/>
       <path id="DejaVuSans-6e" d="M 3513 2113 
L 3513 0 
L 2938 0 
L 2938 2094 
Q 2938 2591 2744 2837 
Q 2550 3084 2163 3084 
Q 1697 3084 1428 2787 
Q 1159 2491 1159 1978 
L 1159 0 
L 581 0 
L 581 3500 
L 1159 3500 
L 1159 2956 
Q 1366 3272 1645 3428 
Q 1925 3584 2291 3584 
Q 2894 3584 3203 3211 
Q 3513 2838 3513 2113 
z
" transform="scale(0.015625)"/>
       <path id="DejaVuSans-67" d="M 2906 1791 
Q 2906 2416 2648 2759 
Q 2391 3103 1925 3103 
Q 1463 3103 1205 2759 
Q 947 2416 947 1791 
Q 947 1169 1205 825 
Q 1463 481 1925 481 
Q 2391 481 2648 825 
Q 2906 1169 2906 1791 
z
M 3481 434 
Q 3481 -459 3084 -895 
Q 2688 -1331 1869 -1331 
Q 1566 -1331 1297 -1286 
Q 1028 -1241 775 -1147 
L 775 -588 
Q 1028 -725 1275 -790 
Q 1522 -856 1778 -856 
Q 2344 -856 2625 -561 
Q 2906 -266 2906 331 
L 2906 616 
Q 2728 306 2450 153 
Q 2172 0 1784 0 
Q 1141 0 747 490 
Q 353 981 353 1791 
Q 353 2603 747 3093 
Q 1141 3584 1784 3584 
Q 2172 3584 2450 3431 
Q 2728 3278 2906 2969 
L 2906 3500 
L 3481 3500 
L 3481 434 
z
" transform="scale(0.015625)"/>
       <path id="DejaVuSans-20" transform="scale(0.015625)"/>
       <path id="DejaVuSans-61" d="M 2194 1759 
Q 1497 1759 1228 1600 
Q 959 1441 959 1056 
Q 959 750 1161 570 
Q 1363 391 1709 391 
Q 2188 391 2477 730 
Q 2766 1069 2766 1631 
L 2766 1759 
L 2194 1759 
z
M 3341 1997 
L 3341 0 
L 2766 0 
L 2766 531 
Q 2569 213 2275 61 
Q 1981 -91 1556 -91 
Q 1019 -91 701 211 
Q 384 513 384 1019 
Q 384 1609 779 1909 
Q 1175 2209 1959 2209 
L 2766 2209 
L 2766 2266 
Q 2766 2663 2505 2880 
Q 2244 3097 1772 3097 
Q 1472 3097 1187 3025 
Q 903 2953 641 2809 
L 641 3341 
Q 956 3463 1253 3523 
Q 1550 3584 1831 3584 
Q 2591 3584 2966 3190 
Q 3341 2797 3341 1997 
z
" transform="scale(0.015625)"/>
       <path id="DejaVuSans-52" d="M 2841 2188 
Q 3044 2119 3236 1894 
Q 3428 1669 3622 1275 
L 4263 0 
L 3584 0 
L 2988 1197 
Q 2756 1666 2539 1819 
Q 2322 1972 1947 1972 
L 1259 1972 
L 1259 0 
L 628 0 
L 628 4666 
L 2053 4666 
Q 2853 4666 3247 4331 
Q 3641 3997 3641 3322 
Q 3641 2881 3436 2590 
Q 3231 2300 2841 2188 
z
M 1259 4147 
L 1259 2491 
L 2053 2491 
Q 2509 2491 2742 2702 
Q 2975 2913 2975 3322 
Q 2975 3731 2742 3939 
Q 2509 4147 2053 4147 
L 1259 4147 
z
" transform="scale(0.015625)"/>
       <path id="DejaVuSans-77" d="M 269 3500 
L 844 3500 
L 1563 769 
L 2278 3500 
L 2956 3500 
L 3675 769 
L 4391 3500 
L 4966 3500 
L 4050 0 
L 3372 0 
L 2619 2869 
L 1863 0 
L 1184 0 
L 269 3500 
z
" transform="scale(0.015625)"/>
       <path id="DejaVuSans-72" d="M 2631 2963 
Q 2534 3019 2420 3045 
Q 2306 3072 2169 3072 
Q 1681 3072 1420 2755 
Q 1159 2438 1159 1844 
L 1159 0 
L 581 0 
L 581 3500 
L 1159 3500 
L 1159 2956 
Q 1341 3275 1631 3429 
Q 1922 3584 2338 3584 
Q 2397 3584 2469 3576 
Q 2541 3569 2628 3553 
L 2631 2963 
z
" transform="scale(0.015625)"/>
       <path id="DejaVuSans-64" d="M 2906 2969 
L 2906 4863 
L 3481 4863 
L 3481 0 
L 2906 0 
L 2906 525 
Q 2725 213 2448 61 
Q 2172 -91 1784 -91 
Q 1150 -91 751 415 
Q 353 922 353 1747 
Q 353 2572 751 3078 
Q 1150 3584 1784 3584 
Q 2172 3584 2448 3432 
Q 2725 3281 2906 2969 
z
M 947 1747 
Q 947 1113 1208 752 
Q 1469 391 1925 391 
Q 2381 391 2643 752 
Q 2906 1113 2906 1747 
Q 2906 2381 2643 2742 
Q 2381 3103 1925 3103 
Q 1469 3103 1208 2742 
Q 947 2381 947 1747 
z
" transform="scale(0.015625)"/>
      </defs>
      <use xlink:href="#DejaVuSans-4d"/>
      <use xlink:href="#DejaVuSans-6f" x="86.279297"/>
      <use xlink:href="#DejaVuSans-76" x="147.460938"/>
      <use xlink:href="#DejaVuSans-69" x="206.640625"/>
      <use xlink:href="#DejaVuSans-6e" x="234.423828"/>
      <use xlink:href="#DejaVuSans-67" x="297.802734"/>
      <use xlink:href="#DejaVuSans-20" x="361.279297"/>
      <use xlink:href="#DejaVuSans-4d" x="393.066406"/>
      <use xlink:href="#DejaVuSans-65" x="479.345703"/>
      <use xlink:href="#DejaVuSans-61" x="540.869141"/>
      <use xlink:href="#DejaVuSans-6e" x="602.148438"/>
      <use xlink:href="#DejaVuSans-20" x="665.527344"/>
      <use xlink:href="#DejaVuSans-52" x="697.314453"/>
      <use xlink:href="#DejaVuSans-65" x="762.296875"/>
      <use xlink:href="#DejaVuSans-77" x="823.820312"/>
      <use xlink:href="#DejaVuSans-61" x="905.607422"/>
      <use xlink:href="#DejaVuSans-72" x="966.886719"/>
      <use xlink:href="#DejaVuSans-64" x="1006.25"/>
     </g>
    </g>
    <g id="text_15">
     <!-- 1e7 -->
     <g transform="translate(57.6 38.472) scale(0.1 -0.1)">
      <defs>
       <path id="DejaVuSans-37" d="M 525 4666 
L 3525 4666 
L 3525 4397 
L 1831 0 
L 1172 0 
L 2766 4134 
L 525 4134 
L 525 4666 
z
" transform="scale(0.015625)"/>
      </defs>
      <use xlink:href="#DejaVuSans-31"/>
      <use xlink:href="#DejaVuSans-65" x="63.623047"/>
      <use xlink:href="#DejaVuSans-37" x="125.146484"/>
     </g>
    </g>
   </g>
   <g id="line2d_13">
    <path d="M 73.832727 223.37073 
L 74.631713 223.339907 
L 127.89743 218.035051 
L 128.163759 212.188384 
L 128.430087 217.988377 
L 155.062946 215.336308 
L 155.329274 214.103177 
L 155.595603 215.285351 
L 182.228461 212.632966 
L 182.49479 200.99071 
L 182.761119 212.586117 
L 236.559493 207.228382 
L 236.825821 177.455438 
L 237.09215 207.183973 
L 290.890524 201.826461 
L 291.156853 207.98266 
L 318.05604 206.068204 
L 318.322369 174.197413 
L 318.588697 206.039886 
L 398.487273 200.354896 
L 398.487273 200.354896 
" clip-path="url(#p4f95d74470)" style="fill: none; stroke: #808080; stroke-width: 1.5; stroke-linecap: square"/>
   </g>
   <g id="patch_3">
    <path d="M 57.6 307.584 
L 57.6 41.472 
" style="fill: none; stroke: #000000; stroke-width: 0.8; stroke-linejoin: miter; stroke-linecap: square"/>
   </g>
   <g id="patch_4">
    <path d="M 414.72 307.584 
L 414.72 41.472 
" style="fill: none; stroke: #000000; stroke-width: 0.8; stroke-linejoin: miter; stroke-linecap: square"/>
   </g>
   <g id="patch_5">
    <path d="M 57.6 307.584 
L 414.72 307.584 
" style="fill: none; stroke: #000000; stroke-width: 0.8; stroke-linejoin: miter; stroke-linecap: square"/>
   </g>
   <g id="patch_6">
    <path d="M 57.6 41.472 
L 414.72 41.472 
" style="fill: none; stroke: #000000; stroke-width: 0.8; stroke-linejoin: miter; stroke-linecap: square"/>
   </g>
   <g id="legend_1">
    <g id="patch_7">
     <path d="M 281.930938 64.150125 
L 407.72 64.150125 
Q 409.72 64.150125 409.72 62.150125 
L 409.72 48.472 
Q 409.72 46.472 407.72 46.472 
L 281.930938 46.472 
Q 279.930938 46.472 279.930938 48.472 
L 279.930938 62.150125 
Q 279.930938 64.150125 281.930938 64.150125 
z
" style="fill: #ffffff; opacity: 0.8; stroke: #cccccc; stroke-linejoin: miter"/>
    </g>
    <g id="line2d_14">
     <path d="M 283.930938 54.570438 
L 293.930938 54.570438 
L 303.930938 54.570438 
" style="fill: none; stroke: #808080; stroke-width: 1.5; stroke-linecap: square"/>
    </g>
    <g id="text_16">
     <!-- Mean Performance -->
     <g transform="translate(311.930938 58.070438) scale(0.1 -0.1)">
      <defs>
       <path id="DejaVuSans-50" d="M 1259 4147 
L 1259 2394 
L 2053 2394 
Q 2494 2394 2734 2622 
Q 2975 2850 2975 3272 
Q 2975 3691 2734 3919 
Q 2494 4147 2053 4147 
L 1259 4147 
z
M 628 4666 
L 2053 4666 
Q 2838 4666 3239 4311 
Q 3641 3956 3641 3272 
Q 3641 2581 3239 2228 
Q 2838 1875 2053 1875 
L 1259 1875 
L 1259 0 
L 628 0 
L 628 4666 
z
" transform="scale(0.015625)"/>
       <path id="DejaVuSans-66" d="M 2375 4863 
L 2375 4384 
L 1825 4384 
Q 1516 4384 1395 4259 
Q 1275 4134 1275 3809 
L 1275 3500 
L 2222 3500 
L 2222 3053 
L 1275 3053 
L 1275 0 
L 697 0 
L 697 3053 
L 147 3053 
L 147 3500 
L 697 3500 
L 697 3744 
Q 697 4328 969 4595 
Q 1241 4863 1831 4863 
L 2375 4863 
z
" transform="scale(0.015625)"/>
       <path id="DejaVuSans-63" d="M 3122 3366 
L 3122 2828 
Q 2878 2963 2633 3030 
Q 2388 3097 2138 3097 
Q 1578 3097 1268 2742 
Q 959 2388 959 1747 
Q 959 1106 1268 751 
Q 1578 397 2138 397 
Q 2388 397 2633 464 
Q 2878 531 3122 666 
L 3122 134 
Q 2881 22 2623 -34 
Q 2366 -91 2075 -91 
Q 1284 -91 818 406 
Q 353 903 353 1747 
Q 353 2603 823 3093 
Q 1294 3584 2113 3584 
Q 2378 3584 2631 3529 
Q 2884 3475 3122 3366 
z
" transform="scale(0.015625)"/>
      </defs>
      <use xlink:href="#DejaVuSans-4d"/>
      <use xlink:href="#DejaVuSans-65" x="86.279297"/>
      <use xlink:href="#DejaVuSans-61" x="147.802734"/>
      <use xlink:href="#DejaVuSans-6e" x="209.082031"/>
      <use xlink:href="#DejaVuSans-20" x="272.460938"/>
      <use xlink:href="#DejaVuSans-50" x="304.248047"/>
      <use xlink:href="#DejaVuSans-65" x="360.925781"/>
      <use xlink:href="#DejaVuSans-72" x="422.449219"/>
      <use xlink:href="#DejaVuSans-66" x="463.5625"/>
      <use xlink:href="#DejaVuSans-6f" x="498.767578"/>
      <use xlink:href="#DejaVuSans-72" x="559.949219"/>
      <use xlink:href="#DejaVuSans-6d" x="599.3125"/>
      <use xlink:href="#DejaVuSans-61" x="696.724609"/>
      <use xlink:href="#DejaVuSans-6e" x="758.003906"/>
      <use xlink:href="#DejaVuSans-63" x="821.382812"/>
      <use xlink:href="#DejaVuSans-65" x="876.363281"/>
     </g>
    </g>
   </g>
  </g>
 </g>
 <defs>
  <clipPath id="p4f95d74470">
   <rect x="57.6" y="41.472" width="357.12" height="266.112"/>
  </clipPath>
 </defs>
</svg>
